<svg xmlns="http://www.w3.org/2000/svg" width="1067" height="1067" viewBox="0 0 1066.7 1066.7">
	<style>
		.a{stop-color:#e4e0de;}.b{stop-color:#f1f1f1;}.c{stop-color:#999fa4;}.d{stop-color:#fdc70c;}.e{stop-color:#f3903f;}.f{stop-color:#231f20;}.g{stop-color:#414042;}
	</style>
	<defs>
		<clipPath clipPathUnits="userSpaceOnUse">
			<path d="M0 800H800V0H0Z" />
		</clipPath>
		<clipPath clipPathUnits="userSpaceOnUse">
			<path d="M120.4 399.2H723V81.9H120.4Z" />
		</clipPath>
		<linearGradient x2="1" gradientUnits="userSpaceOnUse" gradientTransform="matrix(38.328125,0,0,-38.328125,376.80762,426.62158)" spreadMethod="pad">
			<stop offset="0" class="a" />
			<stop offset="0.0292797" class="a" />
			<stop offset="0.174157" stop-color="#adb2b5" />
			<stop offset="0.331461" stop-color="#e1e3e5" />
			<stop offset="0.494382" class="b" />
			<stop offset="0.51059159" class="b" />
			<stop offset="0.91573" class="c" />
			<stop offset="0.9830691" class="c" />
			<stop offset="1" class="c" />
		</linearGradient>
		<linearGradient x2="1" gradientUnits="userSpaceOnUse" gradientTransform="matrix(399.19077,-399.19077,-399.19077,-399.19077,196.34424,607.23975)" spreadMethod="pad">
			<stop offset="0" class="d" />
			<stop offset="1" class="e" />
		</linearGradient>
		<linearGradient x2="1" gradientUnits="userSpaceOnUse" gradientTransform="matrix(581.0835,0,0,-581.0835,105.4292,194.94922)" spreadMethod="pad">
			<stop offset="0" class="d" />
			<stop offset="1" class="e" />
		</linearGradient>
		<clipPath clipPathUnits="userSpaceOnUse">
			<path d="M105.4 787.4H518.2V139.3H105.4Z" />
		</clipPath>
		<linearGradient x2="1" gradientUnits="userSpaceOnUse" gradientTransform="matrix(65.422577,-65.422562,-65.422562,-65.422562,108.25537,243.54785)" spreadMethod="pad">
			<stop offset="0" class="f" />
			<stop offset="1" class="g" />
		</linearGradient>
		<linearGradient x2="1" gradientUnits="userSpaceOnUse" gradientTransform="matrix(175.58,-175.58,-175.58,-175.58,196.34424,607.23975)" spreadMethod="pad">
			<stop offset="0" class="f" />
			<stop offset="1" class="g" />
		</linearGradient>
	</defs>
	<g transform="matrix(1.3333333 0 0 -1.3333333 0 1066.6667)">
		<g clip-path="url(#clipPath3959)">
			<path d="m697 156.7c-84.2 0.2-168.4 0.6-252.6 1 1.3 3.3 1.9 4.9 3.1 8 74.1-0.5 148.2-0.9 222.3-1.2 15.1 0.7 45.8 1.1 52.8 16.3 1.2 2.6-0.1 5.6-3.3 8-64.9 61.7-114.6 127.6-166.9 193.3-13.8 28.2-59.5 16.1-78.3 1.2-97.3-76.9-206.1-131.9-315.7-188.5-5.2-2.7-8.9-6-10-9-5.6-16.1 30.1-18.1 38.9-18.7 74.1-0.3 148.2-0.8 222.4-1.2-1.3-3.2-1.9-4.8-3.2-8.1-84.2 0.4-168.4 0.8-252.6 1-9.2 0-18-3-19.6-6.9-4.6-11.3-9.1-22.6-13.6-33.9-1.7-4.3 4.4-7.8 13.7-7.8 84.7 0.1 169.4 0.1 254.1 0.1-3.5-9.5-7-19-10.5-28.5h38.3c3.4 9.5 6.9 19 10.4 28.5 84.7 0 169.4 0.1 254.1 0.1 9.3 0 18 3.5 19.4 7.7 3.7 10.7 7.5 21.4 11.3 32 1.3 3.5-5.2 6.3-14.5 6.4" fill="#e6e7e8" />
		</g>
		<path d="M376.8 771.3V442.9 81.9h38.3v361 328.4z" fill="url(#linearGradient3997)" />
		<path d="m680.2 341.9-243.7 422c-18.1 31.3-63.1 31.3-81.2 0l-243.7-422c-4.1-7.1-6.2-15.2-6.2-23.4 0-25.9 20.9-46.9 46.8-47h487.4c25.8 0 46.9 21.1 46.9 47 0 8.3-2.1 16.3-6.3 23.4" fill="url(#linearGradient4017)" />
		<path d="m639.6 281.4h-487.4c-20.3 0.1-36.9 16.7-36.9 37 0 6.5 1.7 12.9 4.9 18.5L363.9 758.9c6.7 11.6 18.7 18.5 32 18.5 13.3 0 25.3-6.9 32-18.5L671.6 336.9c3.3-5.6 5-11.9 5-18.5 0-20.4-16.6-37-36.9-37m40.6 60.5-243.7 422c-18.1 31.3-63.1 31.3-81.2 0l-243.7-422c-4.1-7.1-6.2-15.2-6.2-23.4 0-25.9 20.9-46.9 46.8-47h487.4c25.8 0 46.9 21.1 46.9 47 0 8.3-2.1 16.3-6.3 23.4" />
		<path d="m359.9 382.1c-30.4 13.7-49.9 43.8-49.9 77.3 0 3.5 0.2 7.1 0.7 10.6 3.1-0.5 6.2-1.2 9.2-2.1-0.3-2.8-0.5-5.7-0.5-8.5 0-29.3 17-55.9 43.5-68.4-0.8-3.1-1.8-6.1-3-9m104.5 28.9c-9.3-13.3-21.9-23.5-36.8-29.8-1.3 2.9-2.3 5.9-3.1 8.9 27.8 11.9 45.7 38.9 45.7 69.3 0 3.1-0.2 6.2-0.6 9.2 3 0.8 6.1 1.4 9.2 1.8 0.5-3.6 0.7-7.3 0.7-11 0-17.5-5.3-34.2-15.2-48.5m-69.6 123.9c-15.5 0-30.3-4.6-42.9-13.4-2.4 2.1-4.6 4.4-6.6 6.9 14.5 10.4 31.5 15.9 49.5 15.9 18 0 35-5.5 49.5-15.9-2-2.4-4.2-4.8-6.6-6.9-12.6 8.8-27.4 13.4-42.9 13.4m91.6-50.8c-42.7 0-77.4-34.7-77.4-77.4 0-42.7 34.7-77.4 77.4-77.4 7 0 13.9 0.9 20.5 2.8-12-5.6-25.3-8.6-39.1-8.6-28 0-54.2 12.5-71.9 34.2l-2 2.4-2-2.4c-17.7-21.7-43.9-34.2-71.9-34.2-13.1 0-26 2.8-37.7 8 6-1.5 12.2-2.2 18.5-2.2 42.7 0 77.4 34.7 77.4 77.4 0 42.7-34.7 77.4-77.4 77.4-31.9 0-59.4-19.5-71.2-47.2 3.4 14.9 10.5 28.9 20.7 40.6 14.7 16.8 34.9 27.7 56.9 30.7l3.3 0.5-1.3 3.1c-4.8 11.4-7.2 23.4-7.2 35.9 0 28.6 13.1 54.7 34.1 71.9-11.8-13.7-18.7-31.5-18.7-50.5 0-42.7 34.7-77.4 77.4-77.4 42.7 0 77.4 34.7 77.4 77.4 0 19-6.9 36.8-18.7 50.5 21.1-17.2 34.1-43.4 34.1-71.9 0-12.5-2.5-24.7-7.3-36.1l-1.3-3 3.2-0.5c21.6-3.4 41.5-14.4 55.8-31 10.7-12.4 17.8-27.3 20.9-43.2-11 29.4-39.3 50.3-72.5 50.3m-92.5-3c-12 0-21.7-9.7-21.7-21.7 0-12 9.7-21.7 21.7-21.7 12 0 21.7 9.7 21.7 21.7 0 12-9.7 21.7-21.7 21.7" />
		<path d="m686.5 156.1c0-9.3-7.5-16.8-16.8-16.8H122.2c-9.3 0-16.8 7.5-16.8 16.8v77.6c0 9.3 7.5 16.8 16.8 16.8h547.5c9.3 0 16.8-7.5 16.8-16.8z" fill="url(#linearGradient4041)" />
		<path d="m122.2 147.7c-4.6 0-8.4 3.8-8.4 8.4v77.6c0 4.6 3.8 8.4 8.4 8.4h547.5c4.6 0 8.4-3.8 8.4-8.4v-77.6c0-4.6-3.8-8.4-8.4-8.4zM669.7 250.6H122.2c-9.3 0-16.8-7.5-16.8-16.8v-77.6c0-9.3 7.5-16.8 16.8-16.8h547.5c9.3 0 16.8 7.5 16.8 16.8v77.6c0 9.3-7.5 16.8-16.8 16.8" />
		<path d="m159.4 167.6v4.6c2 0.1 4 0.9 6.2 2.2 1.2 0.7 2.2 1.7 3.1 2.9 0.9 1.2 1.6 2.6 2 4 0.3 0.8 0.5 1.4 0.9 1.7 0.3 0.3 0.8 0.5 1.3 0.5 0.6 0 1.1-0.2 1.5-0.7 0.4-0.5 0.6-1 0.6-1.7 0-1.1-0.4-2.5-1.3-4.1-0.9-1.6-2-3.1-3.3-4.4-1.7-1.7-3.4-2.9-5.1-3.7-1.7-0.8-3.7-1.3-5.9-1.4m-0.1 48.9v4.6c1.2-0.2 2.2-0.4 3-0.7 0.8-0.2 2.2-0.7 4.2-1.5 1.3-0.5 2.1-0.7 2.6-0.7 0.7 0 1.3 0.3 1.7 1l0.5 0.9c0.3 0.6 0.9 0.9 1.7 0.9 0.7 0 1.2-0.2 1.6-0.6 0.4-0.4 0.5-1 0.5-1.7v-15.7c0-1-0.2-1.8-0.7-2.2-0.5-0.5-1-0.7-1.5-0.7-0.6 0-1.1 0.2-1.4 0.6-0.4 0.4-0.7 1-0.9 1.9-0.5 2-1 3.6-1.5 4.7-1.1 2.4-2.3 4.3-3.7 5.8-0.9 1-1.9 1.8-2.8 2.3-0.9 0.5-2 0.9-3.1 1m-3 4.6v-4.6c-1.5-0.2-2.6-0.9-3.3-2-0.7-1.1-1.1-2.6-1.1-4.7v-31.2-1.6c0-0.6 0.1-1.2 0.4-1.8 0.2-0.6 0.5-1.2 0.9-1.6 0.4-0.5 0.8-0.9 1.3-1.1 0.5-0.2 1.1-0.4 1.8-0.4v-4.6c-4.9 0-9.1 1.3-12.7 3.8-3.2 2.2-5.6 5.3-7.2 9-1.6 3.8-2.4 8.3-2.4 13.5 0 3.8 0.5 7.3 1.6 10.6 1 3.3 2.6 6.1 4.5 8.5 2 2.4 4.4 4.4 7.2 5.9 2.8 1.5 5.5 2.2 8.1 2.2z" />
		<path d="m203.6 217v4.1c2.7-0.1 5.2-0.7 7.5-1.7 2.3-1 4.3-2.4 6.3-4.3 5.1-5 7.7-12 7.7-20.9 0-8.7-2.5-15.5-7.4-20.4-3.8-3.8-8.5-5.9-14.1-6.3v4.1c0.7 0.2 1.2 0.3 1.5 0.6 0.4 0.2 0.7 0.6 1 1 0.7 1 1 2.6 1 4.7v33.7c0 1.3-0.2 2.4-0.7 3.2-0.3 0.5-0.7 0.9-1.1 1.2-0.4 0.3-1 0.6-1.8 0.9m-3.1 0c-1.3-0.5-2.2-1.1-2.7-1.9-0.5-0.8-0.8-1.9-0.8-3.4v-33.7c0-2.2 0.3-3.8 0.9-4.7 0.5-0.8 1.3-1.3 2.6-1.6v-4.1c-5.6 0.5-10.3 2.6-14 6.3-4.9 4.9-7.3 11.7-7.3 20.4 0 4.4 0.6 8.3 1.9 11.9 1.3 3.5 3.2 6.5 5.7 9 1.9 1.9 4 3.3 6.3 4.3 2.2 1 4.7 1.5 7.4 1.7z" />
		<path d="m261.9 193.8c2.3-0.4 4.1-0.7 5.3-1.2 1.2-0.4 2.4-1 3.4-1.7 1.1-0.8 1.9-1.7 2.4-2.8 0.6-1.1 0.8-2.2 0.8-3.4v-7.8c0-0.8 0.3-1.2 0.8-1.2 0.2 0 0.4 0.1 0.5 0.2 0.1 0.1 0.3 0.3 0.6 0.7 0.6 0.8 1.3 1.3 1.9 1.3 0.4 0 0.9-0.2 1.3-0.7 0.4-0.5 0.6-0.9 0.6-1.4 0-0.8-0.4-1.7-1.1-2.8-0.7-1.1-1.7-2.1-2.8-3-1-0.8-2.1-1.4-3.4-1.8-1.2-0.4-2.6-0.5-4.3-0.5-3.3 0-5.9 1-7.8 2.9-1.9 1.9-2.8 4.6-2.8 8v6.3c0 1.4 0 2.2 0 2.5-0.1 1-0.5 1.9-1 2.6-0.7 0.9-1.8 1.4-3.1 1.5v4c1.3 0.2 2.3 0.6 2.9 1.1 0.5 0.5 0.8 1 1 1.5 0.2 0.6 0.3 1.4 0.3 2.6v10c0 1.6-0.3 2.8-0.9 3.5-0.6 0.8-1.7 1.4-3.3 1.8v4.2h1c2.8 0 5.2-0.1 7.1-0.3 2.9-0.3 5.5-1.2 7.8-2.9 3.3-2.3 4.9-5.7 4.9-10 0-3.6-1.1-6.5-3.3-8.7-0.9-1-2-1.7-3.3-2.3-1.2-0.6-3.1-1.3-5.7-2m-11.5 26.3V175.8c0-1 0.2-1.7 0.6-2.1 0.2-0.3 0.4-0.4 0.6-0.5 0.2-0.1 0.8-0.2 1.7-0.5 1.2-0.3 1.8-1 1.8-2.1 0-0.7-0.3-1.2-1-1.6-0.5-0.3-1.3-0.5-2.4-0.5h-1.3-16.9-1c-0.9 0-1.6 0.2-2.1 0.5-0.5 0.3-0.7 0.8-0.7 1.5 0 1 0.5 1.7 1.5 2 0.8 0.3 1.3 0.4 1.5 0.5 0.1 0.1 0.3 0.2 0.4 0.4 0.3 0.4 0.5 1 0.5 1.9v37.8c0 0.9-0.2 1.5-0.5 1.9-0.2 0.2-0.3 0.4-0.4 0.4-0.1 0.1-0.6 0.2-1.5 0.5-1 0.3-1.5 1-1.5 2 0 0.6 0.2 1.1 0.7 1.5 0.5 0.3 1.2 0.5 2.1 0.5h1z" />
		<path d="m306.6 217v4.1c2.7-0.1 5.2-0.7 7.5-1.7 2.3-1 4.3-2.4 6.3-4.3 5.1-5 7.7-12 7.7-20.9 0-8.7-2.5-15.5-7.4-20.4-3.8-3.8-8.5-5.9-14.1-6.3v4.1c0.7 0.2 1.2 0.3 1.5 0.6 0.4 0.2 0.7 0.6 1 1 0.7 1 1 2.6 1 4.7v33.7c0 1.3-0.2 2.4-0.7 3.2-0.3 0.5-0.7 0.9-1.1 1.2-0.4 0.3-1 0.6-1.8 0.9m-3.1 0c-1.3-0.5-2.2-1.1-2.7-1.9-0.5-0.8-0.8-1.9-0.8-3.4v-33.7c0-2.2 0.3-3.8 0.9-4.7 0.5-0.8 1.3-1.3 2.6-1.6v-4.1c-5.6 0.5-10.2 2.6-14 6.3-4.9 4.9-7.3 11.7-7.3 20.4 0 4.4 0.6 8.3 1.9 11.9 1.3 3.5 3.2 6.5 5.7 9 1.9 1.9 4 3.3 6.3 4.3 2.2 1 4.7 1.5 7.4 1.7z" />
		<path d="m374.1 191.2-4 6.7v10.5c0 2.1-0.3 3.7-0.9 4.9-0.6 1.1-1.7 2.1-3.3 2.9-0.5 0.3-0.9 0.5-1.1 0.8-0.2 0.3-0.3 0.7-0.3 1.1 0 0.7 0.2 1.2 0.7 1.5 0.4 0.3 1.1 0.5 2.1 0.5h9.4c1.3 0 2.1-0.2 2.5-0.6 0.4-0.4 0.6-0.9 0.6-1.4 0-0.5-0.1-0.9-0.4-1.2-0.2-0.3-0.8-0.6-1.7-1.1-1.3-0.7-2.3-1.7-3-3.1-0.5-1-0.7-2.4-0.7-4.2zm-20.1 28.9 20.1-34.9v-16.6h-10.3l-25.6 44.2c-0.6 1-1 1.6-1.4 2-0.4 0.4-0.8 0.7-1.4 0.8l-1.4 0.5c-0.4 0.1-0.7 0.4-0.9 0.7-0.2 0.3-0.3 0.7-0.3 1.1 0 0.4 0.1 0.8 0.3 1.2 0.2 0.4 0.5 0.6 0.9 0.8 0.4 0.2 1.6 0.3 3.5 0.3zm-15.8-13.3 4-6.6v-20.2c0-1.8 0.3-3.2 0.9-4.3 0.6-1.1 1.5-2.1 2.8-2.8l1.1-0.6c0.7-0.4 1-0.9 1-1.7 0-0.6-0.2-1.1-0.7-1.4-0.4-0.3-1.2-0.5-2.5-0.5h-8.7c-2.3 0-3.5 0.7-3.5 2 0 0.5 0.1 0.8 0.4 1.1 0.2 0.3 0.8 0.6 1.6 1.1 2.4 1.3 3.6 3.8 3.6 7.3z" />
		<path d="m399.7 220.1h15.2l10.5-44.3c0.2-0.8 0.4-1.5 0.7-2.1 0.2-0.5 0.7-0.9 1.5-1.2 0.7-0.3 1.1-0.6 1.4-0.8 0.3-0.3 0.4-0.7 0.4-1.1 0-1.3-1-2-2.9-2h-18.8c-0.8 0-1.4 0.2-1.8 0.5-0.5 0.4-0.7 0.8-0.7 1.5 0 0.5 0.1 0.9 0.3 1.1 0.2 0.3 0.7 0.6 1.4 0.9 0.5 0.3 0.9 0.5 1.1 0.8 0.2 0.3 0.3 0.7 0.3 1.1 0 0.4 0 0.8-0.1 1.1l-1.2 5.5h-10.5l1 4.5h8.5l-6.9 30.6zm-2.6-9.6 1.9-7.8-6.7-24.4c-0.2-0.7-0.3-1.4-0.3-2 0-1.6 0.7-2.7 2.2-3.4l1.3-0.6c0.8-0.4 1.2-1 1.2-1.9 0-1.3-0.9-1.9-2.7-1.9h-9.6c-0.9 0-1.7 0.2-2.2 0.6-0.5 0.4-0.8 0.9-0.8 1.6 0 0.7 0.6 1.3 1.7 1.8 1 0.5 1.8 0.9 2.3 1.2 0.5 0.4 1 0.9 1.4 1.5 0.7 1 1.3 2.4 1.7 4.1z" />
		<path d="m462.1 187.2-2 7.1 4.3 15.9c0.3 1 0.4 1.6 0.5 1.9 0 0.6-0.1 1.2-0.4 1.9-0.4 0.9-1 1.5-1.9 1.7l-1.2 0.5c-1 0.3-1.5 1-1.5 1.9 0 0.7 0.3 1.2 0.8 1.6 0.6 0.4 1.3 0.5 2.3 0.5h9.2c1.1 0 1.9-0.1 2.2-0.3 0.6-0.4 0.9-0.9 0.9-1.6 0-0.5-0.1-0.9-0.3-1.1-0.2-0.3-0.5-0.5-1-0.8l-1.9-0.9c-0.8-0.4-1.6-1.1-2.3-2.2-0.7-1.1-1.3-2.4-1.7-3.8zm-1.4-5.4-3.6-13.2h-9.9l-13.4 45.1c-0.2 0.7-0.4 1.1-0.6 1.4-0.2 0.2-0.5 0.4-0.8 0.6-0.8 0.3-1.3 0.6-1.6 0.9-0.3 0.3-0.4 0.7-0.4 1.2 0 0.8 0.3 1.3 1 1.8 0.5 0.3 1.4 0.5 2.6 0.5h16.8c1.1 0 1.8 0 2.2-0.1 0.4 0 0.7-0.1 1-0.3 0.3-0.2 0.5-0.4 0.6-0.8 0.2-0.3 0.3-0.6 0.3-0.9 0-0.9-0.4-1.6-1.3-2-0.7-0.3-1.1-0.7-1.3-1-0.2-0.3-0.4-0.8-0.4-1.5 0-0.4 0-0.8 0.1-1.1z" />
		<path d="m499.7 168.6h-16.9-1c-0.9 0-1.6 0.2-2.1 0.5-0.5 0.3-0.7 0.8-0.7 1.5 0 1 0.5 1.7 1.5 2 0.8 0.3 1.3 0.4 1.5 0.5 0.1 0.1 0.3 0.2 0.4 0.4 0.3 0.4 0.5 1 0.5 1.9v37.8c0 0.9-0.2 1.5-0.5 1.9-0.2 0.2-0.3 0.4-0.4 0.4-0.1 0.1-0.6 0.2-1.5 0.5-1 0.3-1.5 1-1.5 2 0 0.6 0.2 1.1 0.7 1.5 0.5 0.3 1.2 0.5 2.1 0.5h1 16.9 1c0.9 0 1.6-0.2 2.1-0.5 0.5-0.3 0.7-0.8 0.7-1.5 0-1-0.5-1.7-1.5-2-0.8-0.3-1.3-0.4-1.5-0.5-0.1-0.1-0.3-0.2-0.4-0.4-0.3-0.4-0.5-1-0.5-1.9v-37.8c0-0.9 0.2-1.5 0.5-1.9 0.2-0.2 0.3-0.4 0.4-0.4 0.1-0.1 0.6-0.2 1.5-0.5 1-0.3 1.5-1 1.5-2 0-0.6-0.2-1.1-0.7-1.5-0.5-0.3-1.2-0.5-2.1-0.5z" />
		<path d="m541.9 193.8c2.3-0.4 4.1-0.7 5.3-1.2 1.2-0.4 2.4-1 3.4-1.7 1.1-0.8 1.9-1.7 2.4-2.8 0.6-1.1 0.8-2.2 0.8-3.4v-7.8c0-0.8 0.3-1.2 0.8-1.2 0.2 0 0.4 0.1 0.5 0.2 0.1 0.1 0.3 0.3 0.6 0.7 0.6 0.8 1.3 1.3 1.9 1.3 0.4 0 0.9-0.2 1.3-0.7 0.4-0.5 0.6-0.9 0.6-1.4 0-0.8-0.4-1.7-1.1-2.8-0.7-1.1-1.7-2.1-2.8-3-1-0.8-2.1-1.4-3.4-1.8-1.2-0.4-2.6-0.5-4.3-0.5-3.3 0-5.9 1-7.8 2.9-1.9 1.9-2.8 4.6-2.8 8v6.3c0 1.4 0 2.2 0 2.5-0.1 1-0.5 1.9-1 2.6-0.7 0.9-1.8 1.4-3.1 1.5v4c1.3 0.2 2.3 0.6 2.9 1.1 0.5 0.5 0.8 1 1 1.5 0.2 0.6 0.3 1.4 0.3 2.6v10c0 1.6-0.3 2.8-0.9 3.5-0.6 0.8-1.7 1.4-3.3 1.8v4.2h1c2.8 0 5.2-0.1 7.1-0.3 2.9-0.3 5.5-1.2 7.8-2.9 3.3-2.3 4.9-5.7 4.9-10 0-3.6-1.1-6.5-3.3-8.7-0.9-1-2-1.7-3.3-2.3-1.2-0.6-3.1-1.3-5.7-2m-11.5 26.3V175.8c0-1 0.2-1.7 0.6-2.1 0.2-0.3 0.4-0.4 0.6-0.5 0.2-0.1 0.8-0.2 1.7-0.5 1.2-0.3 1.8-1 1.8-2.1 0-0.7-0.3-1.2-1-1.6-0.5-0.3-1.3-0.5-2.4-0.5h-1.3-16.9-1c-0.9 0-1.6 0.2-2.1 0.5-0.5 0.3-0.7 0.8-0.7 1.5 0 1 0.5 1.7 1.5 2 0.8 0.3 1.3 0.4 1.5 0.5 0.1 0.1 0.3 0.2 0.4 0.4 0.3 0.4 0.5 1 0.5 1.9v37.8c0 0.9-0.2 1.5-0.5 1.9-0.2 0.2-0.3 0.4-0.4 0.4-0.1 0.1-0.6 0.2-1.5 0.5-1 0.3-1.5 1-1.5 2 0 0.6 0.2 1.1 0.7 1.5 0.5 0.3 1.2 0.5 2.1 0.5h1z" />
		<path d="m591.4 167.6v4.9c2.5 0.3 4.6 1.4 6.3 3.1 1.9 2 2.9 4.8 2.9 8.6v24.6c0 3.5-1.3 5.9-4 7.2-0.8 0.4-1.3 0.7-1.5 1-0.2 0.3-0.4 0.7-0.4 1.3 0 0.7 0.2 1.1 0.7 1.4 0.5 0.3 1.3 0.4 2.3 0.4h9.2c0.8 0 1.3 0 1.6-0.1 0.3 0 0.5-0.1 0.8-0.3 0.7-0.4 1-0.9 1-1.6 0-0.6-0.2-1-0.6-1.4-0.1-0.1-0.7-0.5-1.6-1-1.1-0.6-2-1.5-2.6-2.8-0.6-1.2-0.9-2.7-0.9-4.3v-24.6c0-4.2-0.9-7.7-2.8-10.4-1.4-2-3.3-3.6-5.9-4.8-1.3-0.6-2.8-1-4.5-1.3m-24.5 16.1v29.6c0 0.9-0.1 1.5-0.5 1.9-0.2 0.2-0.3 0.4-0.4 0.4-0.1 0.1-0.6 0.2-1.5 0.5-1 0.3-1.5 1-1.5 2 0 0.7 0.2 1.2 0.7 1.5 0.5 0.3 1.2 0.5 2.1 0.5h1 16.9 1l1.4-0.2c0.4-0.1 0.8-0.4 1.1-0.7 0.3-0.3 0.4-0.7 0.4-1.2 0-1-0.5-1.7-1.5-2-0.8-0.3-1.3-0.4-1.5-0.5-0.1-0.1-0.3-0.2-0.4-0.4-0.3-0.4-0.5-1-0.5-1.9v-31.6c0-2.1 0.1-3.6 0.2-4.5 0.1-0.8 0.3-1.6 0.7-2.3 0.3-0.6 0.7-1.1 1.1-1.4 0.4-0.3 1.2-0.6 2.3-0.9v-4.9h-0.8c-3.3 0-6 0.3-8.2 0.9-2.5 0.7-4.8 1.7-6.7 3-1.9 1.3-3.3 2.8-4.1 4.5-0.9 1.8-1.3 4.3-1.3 7.7" />
		<path d="m636.4 216.8v4.2c1.5-0.1 2.8-0.3 3.9-0.6 1.1-0.3 2.7-0.9 4.7-1.7 0.5-0.2 0.9-0.3 1.2-0.3 0.5 0 0.8 0.2 1.1 0.5l0.8 1.1c0.4 0.6 0.9 0.8 1.5 0.8 0.7 0 1.2-0.2 1.5-0.7 0.3-0.5 0.5-1.3 0.5-2.3v-12.5c0-0.7-0.2-1.3-0.6-1.8-0.4-0.5-1-0.7-1.6-0.7-0.5 0-1 0.2-1.4 0.5-0.2 0.2-0.4 0.4-0.5 0.7-0.1 0.3-0.3 0.8-0.4 1.5-0.3 1.2-0.8 2.5-1.4 3.8-0.7 1.3-1.5 2.5-2.4 3.5-1.8 2-4.1 3.4-6.8 4m-2.9 4.4v-4.4c-1.6-0.4-2.7-1.1-3.6-2-0.8-0.9-1.2-2-1.2-3.3 0-1.3 0.3-2.4 1-3.3 0.7-0.9 1.8-1.8 3.3-2.7 1.1-0.6 3.5-1.7 7.2-3.3 2.3-1 4-1.9 5.3-2.7 1.2-0.8 2.4-1.8 3.5-3 3-3.1 4.5-6.8 4.5-11.1 0-3.2-0.8-6.2-2.4-8.9-1.6-2.7-3.8-4.8-6.6-6.3-1.5-0.8-3.2-1.4-5-1.9-1.8-0.5-3.5-0.7-5-0.7v4.3c2.2 0.5 3.8 1.3 4.8 2.2 1 0.9 1.5 2.2 1.5 3.8 0 1.7-0.8 3.2-2.3 4.5-1 0.8-2.9 1.9-5.7 3.1-3.1 1.4-5.2 2.3-6.4 2.9-1.1 0.6-2.2 1.3-3.3 2-4.7 3.4-7.1 7.9-7.1 13.5 0 2.9 0.6 5.5 1.8 7.9 1.2 2.4 2.8 4.4 4.9 5.9 2.9 2.1 6.6 3.2 10.9 3.4m-2-49.3v-4.3c-2.1 0-4.3 0.6-6.8 1.8-0.9 0.4-1.6 0.7-1.9 0.8-0.4 0.1-0.7 0.2-1 0.2-0.5 0-0.9-0.1-1.1-0.2-0.3-0.2-0.7-0.6-1.2-1.2-0.5-0.6-0.9-0.8-1.5-0.8-1.4 0-2.1 1.1-2.1 3.2v13.7c0 0.7 0.2 1.3 0.6 1.8 0.4 0.5 0.9 0.7 1.5 0.8 0.6 0 1-0.1 1.3-0.5 0.3-0.3 0.6-0.9 0.8-1.8 0.6-2.2 1.4-4.2 2.5-6.1 1.1-1.9 2.4-3.5 3.8-4.8 1.5-1.4 3.2-2.2 5.1-2.6" />
	</g>
</svg>
