<?xml version="1.0" encoding="utf-8"?>
<!-- Generator: Adobe Illustrator 19.0.0, SVG Export Plug-In . SVG Version: 6.00 Build 0)  -->
<svg version="1.1" id="Layer_1" xmlns="http://www.w3.org/2000/svg" xmlns:xlink="http://www.w3.org/1999/xlink" x="0px" y="0px"
	 width="600px" height="600px" viewBox="0 0 600 600" enable-background="new 0 0 600 600" xml:space="preserve">
<path id="color_x5F_2_4_" fill="#6BCCE0" d="M398.582,406.769c-0.028,2.421,0.005,4.806,0.12,7.103
	c-9.452,4.759-48.439,22.654-100.723,22.916c-37.354,0.186-75.973-17.409-85.101-21.84c0.172-2.564,0.349-5.273,0.522-8.056
	C291.752,416.491,378.539,408.794,398.582,406.769z M214.491,386.715c-0.183,4.291-0.422,8.88-0.685,13.45
	c23.931,0.779,134.723,4.076,184.991,0.099c0.232-4.428,0.623-8.825,1.071-12.897C386.64,384.605,301.772,368.371,214.491,386.715z
	 M301.802,446.062c-50.173-1.525-79.591-16.586-89.509-22.668c-0.441,6.164-0.761,10.241-0.761,10.241
	c93.52,69.351,191.242-2.102,191.242-2.102c-1.617-2.516-2.681-6.044-3.333-10.166C388.971,428.122,354.007,447.648,301.802,446.062
	z M214.767,378.902c18.067-4.44,90.819-19.341,186.031,0.964c1.008-7.364,1.977-12.43,1.977-12.43
	c-101.926-30.473-188.09,0-188.09,0C214.891,369.914,214.894,373.978,214.767,378.902z M474.51,366.386
	c-17.513-14.01-23.117-51.138-7.004-75.656c16.112-24.518,39.793-25.956,39.793-25.956c-0.736-13.488-2.58-24.057-6.033-29.456
	c0,0-31.96,33.559-77.317,29.461c0,0,0.125,93.201,70.999,158c0,0,2.448-16.456,5.198-39.717
	C500.146,383.062,492.023,380.396,474.51,366.386z M172.456,524.96c-5.189,6.749-22.188,0.171-21.519-10.238l-9.487-3.205
	c-3.112,4.232-7.389,8.082-12.397,10.709l-0.307,18.432c0.485,0.233,0.935,0.468,1.338,0.669c6.07,3.051,7.216,9.334,2.716,15.185
	c-4.501,5.852-20.347-1.092-16.181-10.738c1.021-2.363,2.161-3.929,3.347-4.925l-6.538-15.128
	c-5.84-0.036-13.178-1.621-18.367-5.549l-9.042,6.239c2.359,3.964,1.811,9.086-1.944,13.968
	c-5.536,7.196-25.023-1.343-19.899-13.207c4.324-10.011,10.367-8.412,14.491-6.492l7.172-10.307
	c-3.472-4.973-6.688-11.786-7.369-17.327l-9.802-3c-1.089,4.204-4.759,7.502-10.473,8.87c-9.167,2.195-19.326-17.423-7.44-23.657
	c11.884-6.23,15.071,2.274,16.939,6.398c0.126,0.278,0.222,0.554,0.329,0.83l11.056,0.67c0.992-3.484,3.922-11.114,6.962-13.913
	c3.247-2.989,5.659-4.186,8.655-5.969L90.52,452.33c-3.359,1.025-7.14-0.172-10.36-3.642c-5.022-5.409,4.456-19.881,13.275-14.172
	c7.313,4.736,5.416,9.285,3.36,12.331l11.583,11.813c8.207-1.792,15.015,2.103,20.113,5.408l7.498-4.193
	c2.368,3.157,5.032,6.396,7.916,9.417l-3.551,6.823c6.084,7.611,6.368,13.704,5.527,20.638l9.74,8.601
	c4.769-4.51,10.214-1.365,13.366,0.217C176.743,509.464,178.204,517.491,172.456,524.96z M112.884,501.518
	c-0.742-4.859-9.026-4.125-11.161-3.317c-2.387,0.902-6.296,4.723,1.862,10.039C111.745,513.558,113.626,506.377,112.884,501.518z
	 M116.795,475.903c-2.148-1.455-9.765-3.43-11.786,2.003c-2.023,5.434,9.014,11.573,12.6,8.121
	C121.196,482.575,119.143,477.494,116.795,475.903z M129.33,493.21c-2.647-1.31-6.337,3.961-4.776,5.96
	c1.562,1.999,4.244,1.225,5.173,0.119C130.576,498.276,131.977,494.521,129.33,493.21z M514.625,128.039
	c-4.072,7.473-21.888,3.627-22.853-6.76l-9.871-1.687c-2.413,4.666-6.039,9.135-10.575,12.51l2.57,18.255
	c0.516,0.154,0.996,0.315,1.426,0.45c6.471,2.069,8.583,8.096,5.05,14.577c-3.532,6.481-20.267,2.093-17.656-8.085
	c0.64-2.494,1.521-4.217,2.536-5.387l-8.814-13.923c-5.775,0.874-13.273,0.454-19.01-2.617l-7.239,6.888
	c-2.736-1.78-5.516-3.497-8.249-5.121l4.853-10.009c-4.204-4.371-8.443-10.599-9.983-15.966l-10.148-1.435
	c-0.419,4.323-3.529,8.15-8.959,10.393c-8.716,3.598-21.807-14.195-11.04-22.207c10.768-8.007,15.243-0.103,17.73,3.68
	c0.167,0.256,0.305,0.513,0.453,0.769l11.026-1.062c0.436-3.597,2.141-11.59,4.706-14.829c2.742-3.458,4.938-5.017,7.62-7.245
	l-5.83-10.16c-3.157,1.536-7.077,0.942-10.8-1.984c-5.806-4.558,1.302-20.33,10.901-16.066c7.965,3.539,6.797,8.327,5.244,11.656
	l13.28,9.864c7.827-3.052,15.158-0.264,20.711,2.204l9.768-7.681c-1.454-2.431-1.907-5.35-0.6-8.542
	c4.897-11.957,12.519-7.665,16.452-5.781c7.534,3.607,9.092,11.307,3.695,18.606c-2.324,3.143-7.289,3.414-11.801,1.756
	l-3.917,11.693c7.196,6.57,8.426,12.543,8.677,19.524l10.962,6.976c4.007-5.196,9.877-2.94,13.234-1.867
	C516.444,112.061,519.14,119.762,514.625,128.039z M452.128,114.167c-1.492-4.684-9.56-2.668-11.541-1.536
	c-2.216,1.264-5.483,5.646,3.403,9.627C452.88,126.238,453.619,118.852,452.128,114.167z M451.997,88.257
	c-2.348-1.103-10.18-1.867-11.329,3.815c-1.151,5.683,10.708,10.025,13.714,6.058C457.386,94.161,454.565,89.462,451.997,88.257z
	 M467.077,103.397c-2.819-0.88-5.641,4.901-3.789,6.634c1.854,1.729,4.383,0.548,5.131-0.69
	C469.1,108.206,469.897,104.281,467.077,103.397z M528.742,564.079c-13.302,1.759-13.367-7.324-13.701-11.839
	c-0.023-0.305-0.018-0.597-0.023-0.893l-10.15-4.434c-2.131,2.93-7.508,9.085-11.325,10.667c-4.078,1.688-6.755,1.981-10.182,2.624
	l0.151,11.713c3.506,0.194,6.643,2.619,8.473,6.986c2.854,6.807-11.027,17.131-17.341,8.735c-5.237-6.965-1.888-10.581,1.088-12.734
	l-6.806-15.078c-8.323-1.142-13.373-7.142-17.023-12l-12.27,1.96c0.087,2.831-0.938,5.603-3.633,7.755
	c-10.095,8.066-14.666,0.608-17.186-2.949c-4.829-6.817-2.445-14.303,5.821-18.056c3.56-1.615,8.029,0.563,11.165,4.206l9.11-8.311
	c-3.092-9.242-1.262-15.06,1.914-21.279l-6.186-11.428c-1.147,0.494,4.748-3.531,8.851-6.2l6.58,5.291
	c4.379-2.901,9.72-5.043,15.325-5.786l4.756-12.332c3.381,2.395,7.103,4.871,10.693,6.941l0.423,7.486
	c5.472,2.047,11.816,6.06,15.337,11.534l10.637-2.746c-0.852-4.533,1.43-9.154,6.631-12.444c7.676-4.852,23.033,9.873,14.14,19.25
	c-7.507,7.911-12.629,4.329-15.841,1.108l-10.282,7.208c1.548,5.863,2.223,13.366,0.956,18.805l8.17,6.189
	c2.469-3.572,7.049-5.405,12.884-4.723C539.263,540.401,542.046,562.316,528.742,564.079z M467.684,516.224
	c-0.778-2.415-3.564-2.612-4.818-1.894c-1.146,0.658-3.753,3.702-1.719,5.845C463.182,522.316,468.459,518.637,467.684,516.224z
	 M469.677,530.953c-4.555,2.007-4.376,7.484-2.718,9.787c1.515,2.105,7.986,6.582,11.754,2.176
	C482.483,538.51,474.234,528.947,469.677,530.953z M490.492,514.925c-5.831-7.801-10.069-1.707-11.044,3.111
	c-0.977,4.818,7.054,6.981,9.336,6.955C491.335,524.966,496.321,522.725,490.492,514.925z"/>
<path id="color_x5F_1_4_" fill="#3C7297" d="M508.741,180.655c0,0-12.28,11.118-32.316,22.825
	c-36.83-53.947-106.027-85.592-181.499-78.163c-48.207,4.744-131.446,26.009-176.279,121.279c-2.219-2.498-7.888-8.73-10.507-10.509
	c15.326-35.738,70.155-120.228,109.558-151.75l-4.754-75.12l-63.536,17.172C101.938,87.97,73.182,169.925,61.905,208.767
	c-5.206-3.552-27.132-19.411-41.331-10.507c-9.862,6.186-3.511,24.118,11.801,39.57c-3.689,0.683-8.276,3.12-11.801,10.168
	c-7.005,14.01,0,18.914,0,18.914s-15.411,4.903-16.813,14.711c-1.401,9.807,7.706,16.813,7.706,16.813s-12.61,2.976-11.384,18.563
	c0.665,8.45,31.969,25.445,48.594,19.386c23.563,45.533,60.755,72.353,71.72,77.286c25.378,57.091,89.332,103.715,166.649,108.821
	c84.658,5.591,146.034-22.313,184.311-68.892c10.404,11.42,14.338,16.001,27.309,25.887c0,0,92.947-69.87,101.334-237.604
	C600,241.883,542.827,229.09,508.741,180.655z M340.011,200.363c4.203-11.559,0-12.609-5.254-28.371
	c-5.254-15.762,14.711-22.066,14.711-22.066c61.996,3.152,86.742,29.266,106.128,51.488c2.557,2.931,4.929,6.144,7.12,9.473
	c-23.693,11.773-54.532,21.83-87.668,18.835c0,0,1.116,21.691,8.175,53.488c-22.188,5.709-33.755-13.945-33.755-24.004
	c0-10.508-2.102-16.813-11.559-13.66c-9.457,3.152-16.813-2.102-17.863-10.508C318.995,226.631,335.808,211.921,340.011,200.363z
	 M309.013,256.579c14.674,7.126,9.982,19.439-0.525,25.744c-10.508,6.305-3.678,15.236-18.389,20.49
	c-14.711,5.254-14.711-28.371-29.422-23.117c-14.711,5.254-22.066-4.203-16.813-10.508c5.254-6.305,15.762-6.83,29.422-18.389
	C286.946,239.241,302.155,253.249,309.013,256.579z M130.258,264.569c3.186-7.544,6.997-15.39,11.506-23.577
	c26.62-48.336,74.032-77.738,105.778-87.564c14.711-4.553,33.625-3.502,33.625-3.502s-18.564,43.781-36.427,34.324
	c-17.863-9.457-55.691,13.66-54.641,28.371c1.051,14.711-5.254,17.863-13.66,25.219c-8.406,7.355-9.457,15.762-1.051,31.523
	c8.406,15.762,8.406,24.168,0,33.625c-8.406,9.457-25.219,16.813-26.27,24.168c-0.371,2.598,1.097,5.852,3.285,9.252
	c-13.005-3.611-27.985-8.033-35.896-10.388c0.085-11.179,1.574-23.023,4.913-35.76C140.097,292.754,137.897,278.446,130.258,264.569
	z M221.272,230.834c-7.355,0-15.762-2.102-7.355-13.659c8.406-11.559,14.998-13.714,18.389-12.084
	c2.967,1.425,4.729,6.83,6.83,12.084C241.237,222.428,228.628,230.834,221.272,230.834z M159.594,38.878l42.36-11.449
	C146.773,101.675,74.494,235.03,74.494,235.03l-6.176-5.63C100.825,106.806,159.594,38.878,159.594,38.878z M37.095,209.079
	c6.105-0.764,22.135,10.686,22.135,10.686c-1.146,4.197-0.382,10.304-0.382,10.304c19.08,18.698,38.162,23.659,38.162,23.659
	l4.197-7.249c0,0,32.819,23.659,14.501,27.476c-18.317,3.815-69.836-35.873-78.23-49.611
	C30.95,213.663,30.99,209.842,37.095,209.079z M25.35,258.817c1.022-8.168,7.147-16.336,14.295-12.252
	c0,0,9.189,7.147,17.357,11.742c8.168,4.594,9.19,12.252,6.126,18.89c-3.063,6.636-9.189,4.594-16.336,1.02
	C39.645,274.643,24.329,266.985,25.35,258.817z M34.234,328.557c-6.83-0.525-20.49-7.355-24.168-11.559
	c-3.678-4.203,1.051-12.609,6.83-10.508c5.779,2.102,24.168,8.932,25.744,11.033C44.217,319.625,41.064,329.082,34.234,328.557z
	 M51.572,295.983c-1.576,7.355-9.982,8.932-16.813,5.254c-13.754-7.405-25.744-12.609-22.066-19.44
	c3.678-6.83,9.457-9.457,17.863-5.254c8.406,4.203,17.863,9.983,17.863,9.983S53.148,288.627,51.572,295.983z M82.441,299.4
	c-5.112,12.782-12.782,26.843-21.73,22.368c-8.947-4.474-4.474-14.06,0.64-28.12c5.112-14.061,13.783-12.635,17.895-10.865
	C83.131,284.455,87.555,286.618,82.441,299.4z M97.399,282.508c3.692,1.649,5.112,2.783,8.638,4.017
	c-1.79,10.948-2.277,21.189-2.102,32.924c-6.352-5.092-9.666-11.11-12.357-15.475C95.371,295.632,97.647,287.546,97.399,282.508z
	 M123.056,396.984l-0.031-0.126c0,0-6.996-5.648-8.703-8.406c-2.311-3.732-4.592-12.89-3.678-15.631
	c0.17-0.51,0.573-0.691,1.087-0.685c9.088,8.088,29.343,28.148,83.284,55.012c1.941-13.461,7.932-34.564,5.052-52.056l-0.02,1.101
	c-54.99-10.857-99.089-32.137-99.089-32.137v-16.813c23.392,15.39,83.4,28.164,96.601,30.292
	c16.77-6.674,111.024-41.663,206.895-6.056c3.511,8.584,7.439,17.304,11.828,26.044c-1.499,12.513-1.564,33.024,0.276,46.815
	c7.021-3.477,13.523-7.82,19.563-10.939c3.345,5.122,5.826,7.047,9.551,12.058c-15.822,8.893-29.414,19.743-37.359,23.939
	c-18.931,9.997-55.691,24.303-91.805,29.774c-35.877,5.435-83.51-12.128-108.369-24.521
	C185.142,443.185,156.031,423.904,123.056,396.984z M120.938,361.778c12.366,4.789,29.742,9.703,39.673,12.376
	c-1.152,5.672-0.11,9.88-4.246,17.54c-10.272-4.904-23.378-12.267-31.691-17.057C123.284,370.414,122.027,366.135,120.938,361.778z
	 M242.288,495.631c-1.792-7.169-1.051-9.456,0.351-15.062c18.914,5.605,62.83,18.967,132.048-3.852
	c39.002-12.858,66.152-34.19,76.862-43.608c1.683,2.112,3.403,4.209,5.158,6.291C370.45,530.613,242.288,495.631,242.288,495.631z
	 M499.189,448.669c-91.621-69.823-98.197-198.407-98.197-198.407c57.435,5.191,106.202-38.977,106.202-38.977
	c22.16,34.645,72.493,48.637,72.493,48.637C573.026,393.168,499.189,448.669,499.189,448.669z M506.681,277.767
	c-17.332-1.637-39.037,19.234-38.339,45.092c0.655,24.247,13.031,45.658,35.152,48.145c22.118,2.481,37.744-21.272,40.45-45.378
	C546.651,301.522,528.843,279.858,506.681,277.767z M513.824,332.41l1.424,22.808l-14.942,1.754l-2.12-24.302l-15.578-0.935
	l-0.165-14.191l17.627,0.44l-0.593-23.233c0,0,10.39-0.376,13.824,0.225l0.96,22.845c0,0,11.532,0.029,17.543,1.084l0.398,12.686
	L513.824,332.41z"/>
</svg>
