<?xml version="1.0" standalone="no"?>
<!DOCTYPE svg PUBLIC "-//W3C//DTD SVG 20010904//EN"
 "http://www.w3.org/TR/2001/REC-SVG-20010904/DTD/svg10.dtd">
<svg version="1.0" xmlns="http://www.w3.org/2000/svg"
 width="1280.000000pt" height="720.000000pt" viewBox="0 0 1280.000000 720.000000"
 preserveAspectRatio="xMidYMid meet">
<metadata>
Created by potrace 1.16, written by Peter Selinger 2001-2019
</metadata>
<g transform="translate(0.000000,720.000000) scale(0.100000,-0.100000)"
fill="#000000" stroke="none">
<path d="M1397 7140 c-29 -33 -61 -60 -70 -60 -28 0 -47 -12 -47 -30 0 -11 25
-30 73 -55 81 -42 98 -55 80 -62 -14 -5 -18 -43 -5 -43 16 0 62 49 117 123 31
42 61 77 66 77 9 0 196 -135 327 -237 40 -31 80 -62 90 -69 14 -11 10 -19 -46
-78 -34 -37 -62 -71 -62 -76 0 -5 20 -23 45 -40 25 -18 61 -46 79 -63 47 -44
123 -100 160 -115 16 -7 55 -37 86 -66 78 -75 318 -250 489 -359 80 -50 170
-116 199 -145 50 -51 54 -53 71 -37 11 9 17 24 14 34 -7 28 10 33 52 15 29
-12 44 -13 69 -4 39 13 107 -8 146 -44 32 -30 80 -39 101 -20 9 8 32 17 50 20
30 5 47 -3 146 -74 61 -43 125 -85 142 -92 37 -15 61 -8 61 19 0 23 -81 98
-148 137 -26 15 -49 30 -52 34 -3 4 -22 18 -43 32 l-38 26 26 21 c24 18 26 24
16 51 -11 33 -34 60 -49 60 -19 0 -110 90 -116 114 -3 14 -11 38 -18 53 -6 15
-12 56 -14 91 -4 79 -21 102 -119 162 -41 25 -111 78 -157 118 -45 40 -143
114 -218 164 -74 50 -160 110 -190 133 -30 23 -68 49 -85 58 -16 8 -50 36 -75
61 -26 27 -53 46 -66 46 -12 0 -42 18 -65 40 -69 65 -109 52 -159 -52 -13 -27
-26 -48 -28 -48 -2 0 -70 47 -151 104 -202 143 -192 138 -246 134 l-47 -3 67
-55 c37 -30 121 -92 187 -137 151 -102 149 -101 118 -121 -13 -10 -39 -29 -56
-45 l-32 -28 -59 52 c-62 54 -250 197 -320 244 -44 28 -51 39 -33 50 5 3 15
15 20 26 10 17 7 19 -23 19 -31 0 -40 -7 -103 -94 -38 -52 -74 -102 -80 -112
-11 -18 -18 -16 -98 38 -7 4 23 40 74 87 l85 80 -42 1 c-38 0 -45 -5 -96 -60z
m1083 -220 c0 -4 -9 -15 -20 -25 -22 -20 -26 -55 -8 -73 19 -19 36 -14 50 15
17 35 39 40 56 12 12 -19 11 -24 -11 -48 -13 -14 -37 -48 -53 -75 -16 -27 -37
-62 -46 -77 -12 -20 -14 -29 -5 -29 24 0 75 39 96 73 12 20 38 52 58 72 l36
36 35 -18 c18 -10 36 -21 39 -26 2 -4 -9 -29 -24 -55 -41 -66 -44 -79 -27 -97
21 -20 44 -7 85 50 18 25 35 45 38 45 3 0 15 -7 26 -16 19 -14 19 -15 -4 -58
-27 -52 -25 -80 7 -84 22 -3 33 6 77 66 9 11 15 10 34 -6 l24 -19 -26 -39
c-15 -21 -27 -43 -27 -48 0 -5 -14 -40 -32 -78 -17 -37 -28 -71 -24 -75 3 -4
19 2 34 13 25 19 50 56 108 160 l21 37 43 -40 43 -40 -42 -83 c-23 -46 -41
-93 -39 -104 4 -29 32 -31 58 -4 19 20 61 100 71 135 4 14 89 -35 89 -51 0 -5
-10 -18 -23 -30 -48 -45 -97 -119 -97 -147 0 -57 33 -35 127 84 25 31 52 57
58 57 7 0 23 -8 35 -18 l22 -18 -31 -51 c-17 -28 -85 -113 -151 -189 -82 -96
-118 -144 -114 -156 3 -10 1 -24 -3 -33 -7 -12 -16 -6 -46 30 -21 24 -59 57
-85 72 -201 116 -419 275 -567 413 -76 72 -145 113 -177 105 -17 -4 -34 5 -68
36 -25 23 -62 56 -82 73 l-38 33 78 66 c42 36 105 93 139 126 34 34 68 61 76
61 8 0 18 12 22 28 3 15 18 43 31 64 l26 36 64 -41 c35 -22 64 -44 64 -47z"/>
<path d="M10171 7165 c-24 -19 -47 -35 -50 -35 -4 0 -50 -42 -102 -92 -52 -51
-122 -112 -154 -135 -33 -23 -71 -53 -85 -65 -14 -13 -48 -43 -75 -67 -28 -24
-131 -124 -230 -221 -109 -108 -198 -186 -225 -200 -57 -28 -54 -25 -40 -49 6
-12 19 -21 30 -21 29 0 33 -17 11 -49 -13 -18 -21 -45 -21 -70 0 -46 -35 -111
-74 -136 -34 -23 -50 -65 -38 -106 14 -53 -2 -86 -70 -147 -115 -103 -158
-151 -158 -176 0 -61 60 -32 188 90 87 84 121 108 122 87 0 -5 7 -16 14 -26
21 -27 83 -8 121 39 17 20 44 43 60 52 40 22 155 42 177 31 9 -5 39 -9 66 -9
57 0 107 31 162 100 18 23 69 67 114 98 45 31 133 107 196 167 63 61 138 131
165 156 28 24 68 63 90 85 22 23 66 58 98 79 36 24 57 45 57 57 0 12 18 30 50
50 78 49 78 91 -1 158 -27 23 -49 45 -49 50 0 4 79 82 176 172 l177 163 -47 3
c-55 4 -51 7 -221 -154 -69 -65 -130 -119 -135 -119 -6 0 -23 28 -39 62 l-30
62 67 50 c37 27 81 61 97 75 l30 25 -44 1 c-37 0 -51 -6 -100 -48 -31 -26 -63
-53 -72 -59 -13 -11 -21 -3 -53 47 -35 55 -41 60 -75 60 -26 0 -48 -10 -80
-35z m114 -78 c21 -39 61 -109 91 -154 31 -47 52 -88 48 -96 -3 -9 2 -18 13
-21 21 -7 93 -72 93 -84 0 -4 -24 -32 -54 -61 l-54 -53 -17 25 c-21 32 -48 42
-75 27 -25 -13 -26 -37 -2 -44 9 -3 22 -14 29 -25 10 -16 9 -22 -12 -35 -23
-15 -26 -15 -40 1 -8 10 -26 29 -40 43 -14 14 -44 44 -67 68 -48 49 -58 52
-58 16 0 -16 17 -43 48 -77 26 -29 56 -68 66 -88 l19 -35 -25 -27 c-14 -15
-31 -27 -37 -27 -6 0 -31 18 -55 40 -71 66 -125 45 -70 -28 16 -20 37 -44 48
-53 21 -17 16 -33 -14 -49 -15 -8 -26 -4 -54 21 -69 60 -116 14 -55 -55 30
-35 31 -37 14 -56 -17 -19 -18 -19 -64 18 -25 20 -61 47 -78 60 -18 12 -46 32
-63 44 -79 58 -31 -42 59 -123 l72 -64 -38 -32 c-21 -18 -42 -32 -46 -33 -7 0
-65 42 -139 101 -28 23 -54 20 -65 -6 -7 -19 42 -73 104 -114 l43 -29 -43 -35
-42 -35 -30 42 c-59 82 -96 116 -126 116 -16 0 -29 -4 -29 -9 0 -12 47 -79 96
-137 24 -28 44 -55 44 -59 0 -13 -32 -45 -44 -45 -22 0 -109 96 -213 232 -81
108 -108 137 -125 135 -36 -4 -31 21 7 37 21 9 83 64 153 137 156 163 328 312
484 422 75 53 118 103 118 136 0 15 24 39 87 85 48 36 90 63 94 60 5 -2 24
-37 44 -77z"/>
<path d="M10980 7138 c54 -85 57 -88 90 -88 25 0 31 5 38 33 7 26 16 35 48 45
51 17 58 25 45 51 -17 31 -74 29 -109 -4 -15 -14 -29 -25 -33 -25 -3 0 -11 11
-17 25 -10 21 -18 25 -57 25 l-45 0 40 -62z"/>
<path d="M6085 6073 c-464 -40 -994 -254 -1360 -548 -173 -139 -402 -392 -541
-598 -59 -88 -227 -412 -238 -462 -4 -16 -14 -43 -21 -60 -49 -104 -126 -450
-146 -651 -14 -146 -6 -447 16 -594 55 -359 192 -711 397 -1020 105 -158 140
-201 285 -356 138 -146 392 -350 518 -415 44 -22 82 -44 85 -48 8 -13 129 -77
227 -120 260 -114 581 -184 898 -197 125 -5 155 -9 177 -25 37 -26 70 -24 96
6 16 19 32 25 61 25 54 0 253 35 396 70 678 164 1200 554 1567 1171 44 74 84
129 100 138 18 11 33 32 43 65 9 26 48 119 86 205 39 86 79 179 89 206 65 174
85 354 77 694 -6 238 -17 325 -61 466 -32 101 -81 268 -107 365 -27 97 -154
354 -219 440 -14 19 -39 58 -55 85 -53 93 -205 285 -300 378 -470 462 -987
719 -1564 777 -95 9 -412 11 -506 3z m467 -133 c57 -11 117 -20 134 -20 30 0
55 -19 67 -51 6 -17 85 -49 123 -49 12 0 27 -7 35 -16 19 -23 84 -54 114 -54
28 0 32 -12 10 -33 -7 -8 -17 -26 -21 -41 -4 -19 -13 -26 -29 -26 -32 0 -41
-17 -21 -39 9 -10 16 -23 16 -29 0 -19 -38 -23 -69 -8 -17 9 -53 16 -80 16
-45 0 -52 -3 -77 -35 -26 -35 -27 -38 -18 -123 9 -102 9 -178 -1 -283 l-7 -75
41 -12 c60 -19 104 -7 145 38 38 43 52 90 42 150 -6 37 -5 40 17 40 20 0 26
-8 39 -54 l15 -55 -63 -59 c-52 -49 -65 -67 -70 -102 -5 -28 -18 -54 -42 -78
-34 -36 -34 -38 -28 -103 l6 -67 -45 -6 c-29 -5 -49 -14 -55 -26 -18 -33 -23
-106 -10 -144 12 -37 11 -37 -34 -79 -80 -75 -97 -151 -46 -208 16 -19 37 -56
46 -82 28 -82 89 -104 176 -63 18 9 65 45 105 81 l72 65 3 143 c3 130 5 145
26 175 25 35 61 42 82 17 7 -8 21 -15 30 -15 14 0 21 -13 29 -50 6 -28 11 -60
11 -70 0 -16 7 -20 35 -20 28 0 37 -5 50 -30 8 -16 15 -36 15 -45 0 -8 6 -24
12 -35 20 -32 0 -51 -88 -80 -157 -53 -216 -96 -223 -165 -5 -45 -27 -80 -63
-102 -86 -51 -144 -280 -107 -418 6 -22 14 -131 18 -242 7 -224 10 -236 82
-278 32 -19 49 -20 253 -17 224 3 265 10 307 48 15 14 25 13 92 -8 111 -34
110 -32 117 -343 4 -218 7 -254 24 -285 39 -74 93 -110 165 -110 29 0 50 11
106 55 38 30 72 55 77 55 14 0 172 162 205 210 69 102 100 185 123 334 6 44
30 132 52 195 21 64 58 184 80 266 39 141 41 158 42 291 1 122 -1 145 -16 161
-12 13 -18 36 -18 67 0 26 -5 68 -10 94 -6 26 -15 70 -21 97 -6 28 -17 69 -25
92 -17 52 -6 88 31 105 14 6 27 9 28 7 2 -2 16 -58 32 -124 15 -66 36 -142 46
-170 24 -65 46 -166 64 -285 8 -52 19 -111 25 -130 13 -45 13 -366 0 -467 -25
-183 -53 -342 -73 -403 -21 -64 -21 -65 -27 -30 -5 33 -6 31 -39 -55 -35 -94
-181 -402 -211 -445 -10 -14 -38 -56 -64 -95 -105 -160 -165 -235 -275 -349
-357 -368 -807 -603 -1346 -701 -49 -9 -100 -19 -112 -22 -29 -7 -32 22 -4 36
10 6 40 41 67 78 58 82 155 180 192 194 15 6 72 17 126 24 132 18 144 27 176
141 22 76 31 92 58 109 34 21 41 35 18 35 -16 0 -116 -76 -116 -88 0 -4 -20
-28 -45 -53 l-45 -46 -83 -5 c-74 -4 -90 -8 -143 -41 -79 -48 -161 -128 -263
-257 -116 -147 -104 -140 -230 -140 -175 1 -514 59 -666 115 -218 80 -307 115
-333 128 -15 8 -75 39 -135 70 -59 31 -114 63 -123 71 -8 9 -22 16 -30 16 -8
0 -14 5 -14 10 0 6 -5 10 -10 10 -6 0 -23 11 -38 25 -15 14 -36 28 -47 32 -11
3 -44 28 -73 54 -30 27 -59 49 -67 49 -7 0 -30 19 -51 43 -21 23 -63 64 -93
91 -31 27 -58 55 -61 62 -3 8 -18 26 -33 41 -30 30 -123 156 -211 288 -103
154 -153 250 -251 480 -13 29 -46 135 -78 245 -9 30 -21 84 -27 120 -6 36 -16
90 -22 120 -6 30 -13 170 -15 310 -4 221 -2 273 15 390 23 148 70 324 133 495
47 125 173 379 205 412 12 11 38 52 59 90 46 82 139 203 228 296 63 66 85 81
74 52 -4 -8 -2 -17 3 -20 6 -4 10 11 10 34 0 22 3 42 8 44 4 3 43 8 88 12 65
5 81 4 81 -7 0 -48 42 -126 96 -179 31 -32 57 -65 57 -74 0 -8 -9 -28 -21 -44
-26 -36 -23 -99 6 -115 11 -6 22 -12 24 -13 10 -6 -22 -32 -47 -38 -40 -10
-62 -34 -68 -77 -6 -37 -8 -38 -25 -22 -44 39 -105 6 -135 -72 -12 -33 -15
-61 -11 -111 13 -143 25 -207 43 -220 24 -17 103 -17 145 1 59 25 74 50 75
125 1 103 2 107 32 120 15 7 59 33 99 59 l71 47 4 75 3 75 56 3 c55 3 57 2 89
-38 35 -45 48 -47 141 -28 53 11 60 10 80 -8 12 -10 32 -43 45 -71 22 -51 24
-53 64 -53 56 0 66 -26 49 -136 -6 -45 -9 -103 -7 -129 7 -54 5 -55 -107 -74
-94 -17 -136 -38 -157 -81 -18 -35 -18 -35 -18 -7 0 16 -5 27 -14 27 -10 0
-15 -18 -18 -66 l-4 -66 -72 -65 c-66 -59 -72 -68 -72 -103 0 -22 9 -62 20
-90 15 -37 20 -74 20 -141 0 -118 14 -175 49 -195 23 -13 29 -27 39 -83 9 -53
17 -71 42 -93 17 -16 39 -28 49 -28 12 0 34 -22 60 -61 44 -66 45 -68 32 -87
-7 -11 -17 -7 -51 17 -52 37 -126 61 -191 61 -46 0 -49 -2 -80 -47 -18 -27
-59 -79 -91 -118 -71 -84 -105 -150 -120 -234 l-12 -64 29 -23 c59 -47 199
-85 258 -70 14 3 39 17 55 31 28 23 30 24 78 9 98 -30 209 -22 267 18 15 11
20 10 32 -6 8 -10 16 -23 17 -28 2 -6 70 -12 151 -15 124 -4 152 -2 172 11 32
21 47 20 75 -4 20 -17 24 -31 26 -88 2 -49 12 -91 38 -159 43 -109 44 -123 23
-183 -43 -126 -52 -259 -18 -293 21 -21 11 -79 -33 -175 -47 -102 -76 -196
-76 -246 0 -16 -12 -47 -26 -67 -28 -41 -136 -139 -153 -139 -6 0 -23 14 -38
31 -16 17 -47 40 -69 49 -64 28 -85 64 -138 240 -14 47 -37 102 -51 122 -26
38 -26 38 -96 38 l-71 0 -75 69 c-42 39 -106 86 -142 105 -37 19 -74 43 -83
53 -20 23 -88 141 -88 153 0 5 23 32 51 62 28 29 62 69 75 89 16 23 36 39 53
42 16 3 42 18 60 33 64 53 79 122 37 171 -23 26 -30 28 -117 32 -86 3 -96 6
-128 32 -20 16 -41 29 -47 29 -7 0 -27 14 -46 30 -18 17 -52 48 -75 68 -28 24
-61 72 -96 137 l-53 100 -45 5 c-25 3 -58 15 -73 28 -44 34 -82 6 -92 -70 -10
-72 10 -114 89 -195 42 -42 65 -73 57 -74 -36 -3 -66 4 -73 17 -4 8 -33 32
-63 55 -30 22 -66 59 -81 82 -40 63 -80 188 -103 327 -32 191 -34 195 -80 214
-49 20 -77 20 -112 2 -26 -14 -26 -14 -60 53 -24 47 -39 67 -55 69 -35 5 -64
44 -85 113 -19 58 -21 62 -34 44 -9 -12 -14 -44 -14 -86 0 -75 17 -107 70
-129 24 -10 38 -28 59 -75 16 -34 39 -69 52 -79 38 -26 119 -19 119 10 0 15 9
18 26 6 20 -14 34 -68 44 -177 13 -132 23 -171 62 -250 36 -70 78 -126 154
-208 l55 -59 109 4 c90 2 112 6 129 22 35 32 24 67 -31 96 -28 15 -52 36 -61
55 -8 17 -30 42 -50 55 -59 41 -72 90 -23 90 39 0 80 -35 106 -91 30 -64 30
-65 96 -138 28 -31 62 -72 75 -91 14 -21 34 -36 49 -38 14 -2 41 -16 60 -32
31 -24 48 -29 128 -35 70 -5 92 -11 92 -22 0 -22 -47 -63 -73 -63 -30 0 -49
-16 -80 -66 -14 -23 -47 -59 -72 -80 -25 -20 -53 -50 -61 -66 -20 -38 -10
-107 22 -154 13 -19 24 -38 24 -42 0 -4 31 -37 68 -73 51 -50 84 -72 132 -90
49 -19 69 -33 89 -63 56 -82 62 -86 150 -86 l81 0 19 -38 c10 -20 30 -81 45
-134 41 -155 65 -191 146 -220 19 -6 52 -31 75 -55 43 -46 85 -60 123 -39 11
6 52 41 91 78 l71 67 35 121 c37 126 79 238 115 305 18 34 20 50 15 104 -3 35
-14 80 -24 100 -17 32 -17 39 -5 63 57 109 56 348 -2 434 -20 29 -24 47 -24
114 0 68 -3 82 -22 99 -52 50 -169 65 -190 26 -13 -23 -204 -22 -230 2 -10 9
-18 22 -18 30 0 21 -131 18 -161 -5 -29 -22 -143 -30 -165 -11 -7 6 -37 11
-65 11 -41 0 -60 -6 -95 -31 l-44 -30 -62 19 c-78 24 -108 45 -108 74 0 39 48
117 117 190 36 38 74 89 85 112 10 24 22 44 27 44 34 0 107 -39 144 -76 41
-41 47 -44 83 -38 108 17 130 73 73 187 -40 79 -75 117 -109 117 -44 0 -73 41
-78 111 -4 51 -8 62 -27 69 -37 14 -56 56 -70 163 -7 56 -21 123 -30 149 -29
81 -18 105 84 181 85 63 151 128 151 147 0 16 67 42 102 40 80 -5 97 0 131 34
44 44 56 94 26 116 -20 16 -20 19 -8 116 7 54 9 116 5 137 -8 45 -40 77 -77
77 -22 0 -30 6 -38 33 -24 73 -103 112 -204 104 l-68 -6 -21 35 -20 34 -93 0
c-135 0 -142 -4 -147 -84 -3 -45 -10 -74 -24 -93 -20 -28 -108 -93 -125 -93
-5 0 -9 27 -9 60 0 55 2 60 23 60 69 1 126 120 78 164 -15 14 -17 24 -10 59 4
23 5 62 2 87 -5 39 -12 50 -54 83 -61 48 -98 109 -106 176 -7 59 -19 64 -80
31 -47 -25 -82 -28 -63 -5 7 8 17 15 21 15 5 0 25 15 45 32 109 100 219 158
298 158 26 0 48 -9 74 -30 57 -45 116 -63 207 -63 122 0 178 34 209 126 24 71
41 92 115 141 77 50 142 69 211 60 39 -5 60 -2 105 17 37 15 59 20 63 13 14
-21 51 -34 81 -28 37 8 115 74 137 116 28 53 91 60 256 28z m-342 2 c0 -4 -15
-22 -34 -40 -29 -27 -36 -30 -46 -17 -18 22 -69 18 -146 -11 -59 -22 -77 -24
-139 -19 -79 8 -122 -5 -184 -53 -19 -15 -48 -34 -64 -42 -23 -11 -39 -35 -66
-97 -54 -124 -65 -136 -138 -141 -53 -4 -70 0 -142 32 -44 21 -100 40 -123 44
l-43 8 40 25 c22 14 58 33 80 44 22 10 87 40 145 68 118 56 266 107 416 143
189 45 444 78 444 56z m1143 -231 c156 -74 458 -264 470 -295 3 -8 21 -22 39
-32 51 -26 299 -283 381 -397 86 -118 118 -170 196 -321 77 -150 81 -156 92
-156 20 0 7 -22 -18 -31 -45 -17 -103 -94 -103 -137 l0 -37 -25 32 c-14 17
-60 50 -103 74 -79 43 -115 67 -165 107 -23 18 -41 22 -97 22 -72 0 -80 5 -80
55 0 13 -7 50 -15 82 l-15 58 50 47 c50 46 50 47 50 108 0 79 -11 100 -54 100
-20 0 -40 8 -51 20 -27 29 -64 24 -114 -15 -24 -19 -48 -35 -52 -35 -5 0 -9
-23 -9 -51 0 -58 -20 -189 -29 -189 -3 0 -12 9 -19 21 -22 34 -109 69 -175 69
-101 0 -172 -51 -172 -124 0 -54 27 -94 76 -115 48 -20 50 -31 5 -31 -19 0
-38 -5 -41 -11 -5 -7 -14 -3 -26 10 -11 12 -31 21 -44 21 -22 0 -25 4 -25 38
0 20 -6 48 -13 61 -16 32 -94 60 -168 61 -45 0 -59 -4 -76 -22 -39 -44 -46
-72 -52 -209 l-6 -136 -59 -57 c-102 -99 -124 -101 -155 -18 -11 33 -30 67
-41 77 -11 10 -20 25 -20 32 0 8 25 39 56 70 l57 55 -7 78 c-8 103 -5 110 54
110 68 0 77 14 58 91 l-15 60 30 42 c17 23 38 64 48 91 10 26 29 56 41 64 51
35 88 80 88 108 0 29 -36 167 -51 195 -8 15 -14 15 -76 -1 l-68 -17 -7 -65
c-7 -76 -29 -124 -64 -140 -30 -14 -35 -9 -26 25 4 15 4 65 0 110 -11 140 -9
220 7 242 14 17 18 18 48 6 17 -8 49 -16 69 -18 30 -4 40 0 60 22 13 15 36 41
51 59 15 17 39 50 53 73 22 36 29 41 44 33 44 -23 80 4 80 60 0 29 17 25 133
-29z m580 -801 c16 -14 -3 -49 -39 -71 -59 -36 -69 -97 -34 -221 11 -40 20
-85 20 -100 0 -36 25 -48 102 -48 59 0 67 -3 94 -31 16 -17 63 -51 105 -75 75
-44 149 -105 149 -123 0 -5 8 -11 18 -13 14 -3 13 -6 -8 -18 -40 -23 -172 -18
-252 9 -65 22 -67 23 -83 70 -8 27 -27 59 -40 71 -14 13 -25 33 -25 44 0 24
-38 66 -60 66 -9 0 -43 9 -75 20 -93 32 -133 27 -258 -31 -60 -28 -110 -49
-112 -47 -2 2 -1 15 2 31 5 23 10 27 39 27 49 0 78 32 71 77 -6 34 -29 60 -77
85 -61 32 -72 54 -41 82 28 25 85 31 123 13 57 -27 81 -61 86 -122 4 -47 8
-56 27 -61 13 -3 36 1 52 10 26 13 32 25 51 103 12 49 22 120 22 158 0 75 4
86 34 102 20 11 95 6 109 -7z m-3061 -295 c14 3 16 -8 17 -72 1 -112 -31 -172
-85 -159 -26 7 -27 9 -21 63 3 33 1 65 -5 77 -9 16 -7 23 9 35 29 24 35 59 12
74 -10 8 -16 17 -13 20 4 3 21 -4 38 -17 17 -13 38 -22 48 -21z m2923 -219
c41 -11 51 -18 53 -37 2 -13 21 -40 43 -60 25 -24 39 -45 39 -61 0 -35 36 -78
66 -78 14 0 41 -7 62 -16 42 -17 272 -36 336 -28 51 7 71 -11 68 -62 -2 -19
11 -77 28 -130 38 -118 38 -163 0 -276 -16 -49 -30 -106 -30 -126 -1 -55 -17
-118 -51 -191 -45 -97 -69 -175 -69 -225 0 -96 -57 -245 -145 -374 -57 -86
-105 -134 -180 -183 -33 -22 -73 -49 -88 -62 -26 -20 -30 -20 -55 -7 -15 8
-38 38 -52 65 -24 48 -25 56 -20 190 9 265 7 277 -38 352 -38 62 -45 68 -117
99 -42 19 -87 34 -101 34 -14 0 -54 -15 -89 -34 l-64 -34 -195 -7 c-175 -7
-199 -6 -222 10 -49 32 -57 73 -50 245 5 131 4 164 -11 215 -23 79 -21 154 6
241 19 61 29 78 69 112 47 39 92 112 92 149 0 49 120 122 214 130 46 4 75 14
118 40 76 47 288 133 313 127 11 -2 43 -10 70 -18z"/>
<path d="M6412 5132 c-22 -15 -52 -110 -52 -166 0 -72 14 -110 39 -103 32 8
44 -9 52 -73 7 -65 18 -83 56 -95 18 -5 29 1 50 24 25 27 32 29 63 22 72 -16
97 15 88 108 -6 56 -28 104 -88 184 -41 55 -44 57 -90 57 -37 0 -51 5 -70 25
-26 27 -29 29 -48 17z m46 -79 c4 -10 13 -18 20 -19 6 -1 22 -2 35 -2 16 -2
40 -25 80 -78 49 -66 57 -82 57 -120 0 -48 -2 -49 -49 -33 -28 10 -37 9 -61
-10 l-29 -21 -7 38 c-15 91 -18 97 -52 100 -37 4 -46 24 -32 72 6 19 10 47 10
62 0 31 17 37 28 11z"/>
<path d="M8035 2009 c-36 -18 -55 -19 -170 -15 -160 6 -196 0 -283 -53 -37
-22 -79 -41 -93 -41 -27 0 -89 -53 -89 -77 0 -13 8 -14 48 -8 45 6 83 19 272
88 76 28 97 32 195 32 88 0 115 4 135 18 13 9 30 17 36 17 15 0 64 39 64 51 0
16 -73 8 -115 -12z"/>
<path d="M12105 5590 c-11 -3 -50 -20 -87 -38 -37 -18 -70 -32 -73 -32 -3 0
-5 9 -5 20 0 11 -7 20 -15 20 -23 0 -19 -55 9 -138 34 -100 37 -142 9 -142 -9
0 -86 -22 -172 -49 -221 -70 -310 -95 -317 -88 -3 3 -13 43 -20 88 -8 46 -17
85 -20 88 -2 3 -26 -3 -52 -12 -27 -10 -70 -22 -98 -27 -61 -11 -136 -35 -189
-61 -22 -10 -84 -29 -139 -40 -115 -24 -372 -108 -567 -184 -145 -58 -203 -74
-256 -75 -30 0 -33 -3 -33 -29 0 -21 6 -32 20 -36 29 -9 25 -19 -19 -48 -25
-17 -40 -35 -44 -55 -7 -33 -87 -92 -125 -92 -32 0 -72 -39 -72 -69 0 -14 -9
-40 -19 -57 -15 -25 -33 -36 -90 -53 -205 -62 -273 -103 -226 -137 21 -16 71
-8 155 23 80 30 173 62 181 63 4 0 10 -15 13 -34 6 -32 10 -35 53 -42 32 -5
48 -3 51 5 2 6 12 11 22 11 10 0 21 4 24 9 11 17 94 21 137 6 23 -8 52 -15 65
-15 13 0 25 -8 28 -17 7 -21 79 -53 119 -53 16 0 60 14 99 31 38 17 119 42
180 55 60 14 183 51 271 83 89 32 192 68 229 79 37 12 80 28 95 35 15 8 54 18
86 22 36 4 66 14 77 25 10 10 44 24 75 31 32 7 64 19 71 27 21 21 16 72 -11
117 -34 54 -32 72 8 84 17 5 133 44 256 85 123 42 225 75 226 74 5 -8 25 -139
25 -165 0 -29 34 -73 56 -73 6 0 21 12 33 26 20 23 28 26 66 21 28 -4 46 -2
53 6 10 13 11 11 -62 319 -25 108 -46 208 -46 221 0 13 -7 43 -15 66 -13 37
-13 45 2 76 19 39 10 56 -22 45z m-34 -77 c6 -96 40 -319 66 -433 34 -151 34
-154 1 -158 -25 -3 -27 0 -38 55 -26 133 -80 344 -109 421 l-30 83 42 19 c46
20 67 24 68 13z m-697 -285 c15 -126 30 -278 31 -313 1 -22 14 -65 28 -95 34
-69 33 -78 0 -86 -16 -4 -45 -15 -66 -26 -41 -20 -57 -17 -57 11 0 11 -8 29
-18 41 -13 17 -24 20 -45 15 -30 -8 -35 -26 -12 -45 24 -20 18 -47 -12 -54
-30 -8 -43 5 -43 45 0 15 -8 37 -19 50 -10 13 -26 48 -35 77 -10 28 -21 52
-26 52 -19 0 -20 -69 -2 -116 11 -27 22 -71 25 -97 7 -48 6 -48 -28 -63 -19
-8 -38 -14 -43 -14 -5 0 -22 28 -38 63 -21 44 -35 63 -51 65 -32 5 -37 -27
-14 -95 21 -62 19 -69 -19 -75 -21 -3 -27 3 -40 40 -16 45 -48 64 -74 43 -13
-11 -9 -61 9 -103 4 -10 3 -18 -1 -18 -5 0 -19 -3 -31 -6 -16 -4 -23 -2 -23 8
0 7 -28 60 -62 117 -56 95 -62 102 -70 81 -12 -32 -2 -72 38 -152 19 -37 34
-72 34 -77 0 -8 -73 -31 -99 -31 -5 0 -29 38 -53 85 -45 89 -71 111 -94 80
-14 -18 -11 -29 26 -109 11 -25 24 -48 30 -51 19 -12 10 -22 -33 -39 -23 -9
-45 -16 -49 -16 -3 0 -9 17 -13 38 -18 101 -68 194 -95 177 -13 -8 -7 -57 22
-164 19 -72 20 -75 2 -88 -29 -21 -49 -15 -67 21 -17 37 -62 194 -82 291 -25
117 -34 143 -55 148 -11 3 -20 12 -20 20 0 10 13 15 50 16 35 0 88 16 182 55
168 69 376 138 498 166 52 11 124 28 160 36 72 17 130 48 130 69 0 15 37 27
130 45 29 6 56 12 58 15 16 16 31 0 36 -37z m622 -34 c27 -97 28 -92 -13 -99
-93 -14 -228 -52 -346 -97 -71 -26 -137 -48 -148 -48 -17 0 -19 8 -19 69 0 58
3 71 18 75 9 3 58 14 107 26 50 11 153 43 230 70 77 26 144 47 150 46 5 -1 15
-20 21 -42z"/>
<path d="M510 5270 c-6 -11 -24 -68 -39 -128 -87 -325 -143 -491 -175 -517
-47 -37 -29 -55 52 -55 86 0 122 -10 119 -33 -3 -30 18 -31 31 -2 7 15 22 70
33 123 11 53 24 100 28 104 6 7 531 -97 531 -105 0 -1 -10 -27 -21 -57 -30
-78 -39 -119 -26 -127 5 -3 37 -12 71 -19 34 -6 98 -22 144 -33 46 -12 101
-21 122 -21 22 0 73 -11 114 -25 96 -32 379 -89 577 -115 161 -21 228 -36 290
-63 36 -16 36 -16 47 8 7 15 8 26 2 30 -6 4 -10 15 -10 26 0 16 7 19 42 19 29
0 49 7 65 22 27 25 117 41 147 26 34 -18 86 -2 120 38 38 45 48 45 214 15 146
-27 186 -25 190 6 6 41 -37 56 -271 94 -63 11 -76 16 -71 29 15 36 16 51 3 66
-17 21 -55 35 -104 40 -22 2 -53 9 -70 15 -37 12 -135 102 -135 123 0 27 -50
90 -82 103 -17 8 -70 18 -117 23 -47 5 -122 21 -166 35 -44 14 -150 37 -235
51 -85 14 -198 34 -250 45 -53 10 -108 19 -122 19 -15 0 -52 9 -83 21 -38 14
-67 19 -90 15 -22 -4 -50 0 -82 12 -32 12 -57 16 -71 11 -30 -11 -56 -54 -48
-82 3 -12 3 -39 -1 -61 -6 -38 -7 -38 -42 -33 -89 14 -496 89 -500 92 -2 3 11
44 29 92 36 99 39 128 16 151 -13 14 -20 14 -36 4 -31 -19 -64 -14 -88 13 -26
30 -38 31 -52 5z m100 -108 c0 -11 -9 -45 -21 -78 -32 -93 -97 -353 -105 -422
l-7 -63 -56 7 c-31 3 -58 8 -60 10 -2 1 16 47 39 101 44 104 119 323 140 411
11 48 14 52 41 52 22 0 29 -5 29 -18z m796 -177 c8 -2 10 -20 7 -48 -5 -39 -2
-47 16 -56 28 -15 41 -6 41 27 0 43 12 54 44 42 23 -8 27 -15 22 -33 -4 -12
-12 -51 -17 -87 -24 -147 -20 -165 20 -114 11 14 23 46 26 72 4 26 14 69 23
95 l16 48 46 -3 45 -3 -3 -71 c-3 -74 9 -101 41 -88 15 5 37 73 37 113 0 27
13 33 45 21 25 -10 27 -14 21 -51 -7 -47 7 -79 35 -79 21 0 49 51 49 90 0 21
4 23 35 14 19 -5 20 -13 20 -132 0 -75 4 -129 10 -131 21 -9 45 66 51 157 l7
92 26 -7 c83 -20 76 -10 78 -109 4 -113 9 -134 32 -134 32 0 40 23 43 113 1
48 3 87 5 87 1 0 25 -5 53 -11 42 -9 50 -14 44 -27 -19 -43 -45 -166 -40 -187
8 -30 33 -39 45 -16 6 10 22 63 37 117 14 55 27 100 28 102 2 1 17 -1 34 -4
28 -6 32 -10 32 -40 0 -46 -23 -147 -68 -304 -34 -117 -38 -137 -26 -151 8 -9
12 -23 8 -32 -5 -14 -10 -13 -40 5 -24 14 -90 28 -236 48 -241 34 -414 69
-540 111 -108 35 -225 49 -238 29 -7 -11 -20 -10 -72 5 -35 10 -83 24 -108 30
-49 14 -50 17 -19 79 35 71 86 200 94 233 3 18 16 39 27 47 14 10 18 21 14 32
-4 10 -4 42 0 71 l6 53 67 -6 c36 -3 71 -7 77 -9z m-702 -55 c48 -17 131 -37
184 -46 210 -34 265 -44 269 -48 3 -3 -48 -105 -63 -125 -2 -2 -54 10 -116 27
-62 17 -178 43 -258 57 -80 15 -146 28 -147 29 -4 3 33 136 38 136 3 0 45 -14
93 -30z"/>
<path d="M10301 3322 c-6 -12 -5 -23 5 -37 21 -28 18 -33 -28 -40 -27 -5 -52
-18 -68 -35 -27 -29 -108 -48 -150 -35 -22 7 -90 -12 -90 -25 0 -5 -12 -23
-27 -40 l-26 -32 -169 7 c-172 8 -198 4 -198 -31 0 -29 59 -44 202 -54 79 -5
146 -10 151 -10 4 0 5 -17 1 -37 -5 -34 -3 -40 23 -54 16 -10 53 -17 86 -18
67 -1 116 -19 163 -61 19 -16 39 -30 44 -30 6 0 10 -8 10 -18 0 -10 18 -38 39
-62 l39 -44 129 -7 c70 -4 163 -14 206 -23 69 -14 177 -23 517 -41 58 -4 135
-13 173 -22 53 -12 70 -13 82 -3 12 10 25 10 59 1 104 -26 126 -7 126 108 l0
74 68 -6 c37 -3 146 -11 242 -17 96 -6 189 -13 206 -16 l31 -4 -19 -83 c-11
-45 -22 -92 -25 -103 -10 -43 41 -88 62 -54 11 18 58 11 82 -12 39 -37 56 -16
72 88 7 49 29 172 48 274 20 102 37 204 40 226 3 27 15 53 34 73 48 53 46 55
-92 51 -46 -1 -79 3 -83 9 -4 6 -3 11 3 11 6 0 8 7 5 15 -8 21 -31 19 -38 -3
-4 -10 -12 -69 -20 -131 -8 -62 -15 -114 -17 -116 -3 -2 -40 0 -84 5 -44 5
-156 16 -250 25 -189 18 -208 22 -202 39 12 30 39 168 34 173 -3 3 -34 7 -68
9 -34 2 -77 8 -95 14 -19 7 -80 12 -136 12 -57 0 -128 6 -158 14 -97 24 -310
43 -571 53 -185 7 -266 14 -298 25 -55 20 -58 20 -70 -2z m267 -72 c180 0 455
-25 602 -55 145 -29 212 -32 234 -10 8 8 22 15 32 15 17 0 196 -32 202 -36 2
-1 -10 -40 -26 -85 -16 -46 -39 -124 -52 -174 -13 -49 -28 -93 -34 -97 -6 -4
-9 -36 -7 -82 l3 -76 -76 0 -76 0 0 45 c0 35 -5 47 -21 55 -32 17 -47 6 -46
-34 1 -43 -4 -49 -35 -41 l-24 6 4 125 c3 68 0 124 -4 124 -20 0 -39 -49 -46
-115 -3 -38 -10 -85 -13 -102 -7 -32 -9 -33 -56 -33 l-49 0 0 69 c0 50 -4 72
-16 82 -28 23 -48 -2 -58 -74 -9 -65 -10 -67 -38 -67 -27 0 -28 1 -28 53 0 47
-3 55 -26 68 -23 12 -27 12 -40 -6 -8 -10 -14 -38 -14 -62 0 -41 -1 -43 -30
-43 -27 0 -30 3 -30 33 0 30 -16 164 -26 216 -5 23 -6 23 -22 7 -14 -13 -18
-40 -20 -132 l-4 -114 -51 6 c-29 4 -53 8 -55 9 -2 2 -6 45 -9 95 -5 73 -10
97 -25 112 -16 16 -22 17 -35 7 -12 -10 -14 -32 -11 -106 l3 -93 -30 0 c-16 0
-40 3 -52 6 -18 5 -20 10 -13 34 4 16 11 61 14 102 5 57 3 77 -8 92 -27 34
-42 4 -61 -119 -17 -115 -17 -115 -45 -115 -45 0 -50 14 -39 135 5 60 13 125
18 145 24 93 35 202 23 221 -26 41 -16 48 38 28 40 -15 77 -19 178 -19z m1812
-130 c0 -5 -9 -36 -19 -67 -42 -126 -88 -326 -106 -460 -5 -42 -11 -53 -25
-53 -46 0 -47 4 -24 118 31 157 54 322 54 395 0 35 3 67 7 70 10 11 113 8 113
-3z m-630 -174 c42 -8 157 -22 255 -31 99 -9 182 -18 184 -21 5 -5 -16 -124
-23 -132 -3 -2 -36 3 -73 13 -37 9 -129 21 -203 27 -74 5 -168 12 -208 15 -63
4 -73 7 -68 21 33 99 42 122 51 122 6 0 44 -7 85 -14z"/>
<path d="M2181 3075 c-35 -14 -93 -30 -130 -36 -155 -26 -229 -42 -373 -83
-84 -24 -179 -49 -211 -56 -32 -6 -70 -18 -85 -26 -15 -8 -48 -14 -74 -14 -49
0 -98 -14 -109 -32 -3 -5 -35 -13 -69 -17 -91 -11 -111 -48 -71 -128 21 -42
35 -83 28 -83 -7 0 -413 -108 -471 -125 -38 -12 -51 -12 -57 -3 -4 7 -11 55
-14 108 -7 86 -10 97 -32 114 -25 18 -25 18 -49 -8 -25 -26 -52 -31 -89 -17
-50 20 -55 -7 -26 -150 10 -52 28 -166 40 -254 12 -88 25 -182 30 -208 5 -34
4 -55 -6 -74 -7 -14 -13 -32 -13 -39 0 -18 43 -18 79 1 16 8 47 21 70 29 41
14 42 14 51 -10 5 -13 14 -24 20 -24 16 0 12 68 -10 155 -26 104 -25 121 2
128 24 6 447 104 484 112 20 4 21 -1 27 -73 8 -99 14 -115 41 -109 12 3 48 10
81 17 161 31 213 45 245 62 19 10 51 18 71 18 88 0 361 65 634 152 105 33 185
52 233 55 71 6 72 6 72 33 0 16 -7 30 -15 34 -24 9 -17 25 18 42 22 11 38 28
46 49 13 38 83 85 126 85 39 0 85 38 85 71 0 54 34 77 170 113 188 51 203 58
192 98 -5 19 -11 20 -71 15 -37 -3 -93 -14 -126 -25 -33 -11 -73 -23 -90 -26
-16 -3 -40 -8 -52 -12 -19 -5 -22 -2 -25 28 -3 29 -7 34 -41 43 -30 7 -50 5
-87 -8 -51 -18 -135 -23 -144 -8 -3 5 -26 14 -51 20 -25 6 -45 16 -45 21 0 16
-93 70 -120 69 -14 0 -54 -11 -89 -24z m152 -114 c20 -66 51 -226 62 -315 9
-75 20 -106 40 -106 8 0 15 -8 15 -17 0 -15 -9 -18 -52 -18 -36 0 -111 -19
-233 -57 -205 -64 -354 -102 -470 -118 -218 -31 -253 -40 -285 -82 -12 -14
-41 -23 -119 -34 -56 -9 -104 -14 -106 -12 -2 2 -5 93 -8 203 -3 152 -8 209
-20 236 -9 19 -18 46 -22 60 -6 25 2 29 132 67 7 2 15 -12 19 -33 8 -46 45
-68 71 -42 13 13 15 20 5 29 -22 22 -14 55 14 61 20 3 27 -1 35 -20 5 -13 9
-35 9 -48 0 -12 7 -36 15 -51 8 -16 15 -36 15 -45 0 -9 6 -31 14 -49 13 -32
14 -32 25 -12 15 28 14 71 -4 122 -8 23 -15 62 -15 87 0 36 4 45 23 52 63 24
60 25 87 -47 22 -58 28 -67 50 -67 24 0 25 3 23 53 -1 28 -7 61 -13 72 -9 17
-7 22 16 32 23 11 28 10 41 -7 7 -11 17 -31 20 -45 7 -30 20 -40 51 -40 19 0
22 5 22 41 0 22 -5 49 -10 60 -11 20 -7 25 33 31 14 2 23 -9 35 -42 31 -82 87
-190 97 -186 20 6 8 109 -19 170 -33 74 -33 82 5 90 71 14 74 12 114 -76 45
-101 50 -107 77 -101 17 5 20 12 16 48 -3 23 -17 65 -32 94 -14 29 -26 54 -26
56 0 5 92 26 97 22 2 -2 8 -29 13 -59 20 -123 41 -167 75 -154 17 6 15 30 -11
165 -16 82 -13 91 36 91 23 0 28 -7 43 -59z m-1859 -393 c27 -191 52 -327 75
-421 16 -62 27 -115 25 -119 -4 -6 -96 -40 -99 -35 -1 1 -7 81 -14 178 -6 97
-20 229 -31 293 -11 65 -17 122 -14 127 3 5 16 9 29 9 20 0 25 -6 29 -32z
m626 -111 l0 -74 -85 -12 c-47 -7 -163 -33 -258 -56 -94 -24 -175 -41 -179
-37 -8 8 -28 124 -22 133 2 3 26 7 54 8 69 2 169 23 335 70 77 22 143 40 148
40 4 1 7 -32 7 -72z"/>
<path d="M3445 1916 c-16 -7 -60 -36 -98 -64 -37 -28 -77 -57 -90 -63 -12 -6
-32 -20 -44 -31 l-22 -20 -14 35 c-14 33 -18 35 -53 31 -22 -2 -43 -9 -49 -16
-12 -14 -32 -28 -85 -57 -41 -22 -169 -32 -191 -15 -8 7 -35 15 -61 18 -58 9
-95 -6 -165 -67 -28 -24 -96 -68 -150 -97 -54 -29 -168 -103 -253 -164 -85
-62 -176 -125 -202 -142 -27 -16 -48 -32 -48 -36 0 -4 -35 -26 -79 -47 -48
-25 -80 -47 -83 -59 -3 -12 -27 -30 -56 -43 -84 -39 -89 -84 -16 -157 24 -24
44 -47 44 -51 0 -4 -69 -55 -152 -113 -84 -59 -185 -129 -225 -157 l-72 -51
-34 68 c-19 37 -38 78 -42 92 -17 55 -77 68 -93 21 -11 -31 -45 -56 -62 -46
-17 10 -50 -5 -50 -23 0 -10 18 -49 41 -87 88 -150 192 -339 219 -400 15 -34
33 -66 39 -69 6 -4 11 -29 11 -57 0 -65 13 -64 96 11 65 59 92 74 80 45 -4
-10 1 -15 15 -15 32 0 18 38 -51 144 -52 81 -64 116 -39 116 5 0 82 49 172
108 190 127 256 167 264 158 3 -3 22 -38 42 -78 39 -78 54 -86 96 -48 11 10
40 28 65 41 25 13 63 36 84 51 21 15 45 28 52 28 7 0 23 13 35 30 12 16 58 48
103 71 109 56 328 202 518 346 95 72 177 126 207 137 40 14 51 23 51 40 0 15
-9 25 -31 33 l-32 12 32 36 c22 25 31 46 31 70 0 39 43 96 91 121 38 19 57 60
51 111 -5 50 11 68 128 148 135 91 178 142 134 159 -21 8 -24 7 -59 -8z m-667
-288 c44 -60 88 -132 160 -263 36 -66 55 -91 73 -95 36 -9 29 -33 -11 -43 -20
-5 -84 -46 -150 -98 -154 -121 -402 -286 -525 -349 -111 -56 -162 -97 -167
-132 -2 -18 -25 -35 -98 -74 -52 -28 -98 -49 -102 -45 -4 3 -22 49 -41 101
-19 53 -49 124 -66 159 -18 34 -31 70 -29 79 1 9 -19 39 -45 65 -26 27 -47 54
-46 60 0 7 26 31 58 54 l59 41 29 -36 c28 -34 32 -36 56 -25 34 16 34 25 0 59
-25 26 -26 27 -8 40 29 21 44 17 64 -18 19 -33 66 -95 108 -146 l23 -27 0 38
c0 40 -11 69 -40 99 -9 10 -27 41 -41 69 l-23 51 34 29 35 29 51 -56 c41 -46
54 -55 72 -50 12 4 22 12 22 17 0 14 -29 68 -54 102 -21 28 -21 29 -2 43 29
21 41 18 70 -21 29 -37 69 -47 80 -20 7 18 -9 63 -31 87 -13 14 -13 20 -3 33
7 8 18 15 24 15 6 0 51 -41 101 -90 49 -50 93 -90 97 -90 5 0 8 10 8 23 0 29
-46 100 -99 152 -23 21 -41 42 -41 46 0 4 20 19 45 34 l46 26 42 -37 c23 -21
51 -50 62 -66 22 -31 61 -46 77 -30 19 19 0 56 -57 114 l-55 57 45 31 45 31
11 -28 c18 -48 83 -142 107 -154 52 -28 51 26 -3 105 -11 17 -32 51 -45 74
l-25 44 24 19 c13 10 27 19 32 19 4 0 26 -24 47 -52z m-991 -879 c7 -24 17
-51 22 -61 12 -20 8 -24 -74 -67 -33 -17 -130 -78 -214 -135 -154 -103 -155
-104 -172 -82 -19 25 -49 81 -49 94 0 4 42 30 93 56 51 26 153 92 227 147 74
54 139 98 144 96 6 -2 16 -23 23 -48z m-627 -109 c0 -27 195 -357 275 -465 14
-20 12 -23 -31 -59 -25 -21 -46 -36 -48 -35 -1 2 -15 38 -31 79 -40 107 -134
303 -183 383 -47 76 -49 82 -24 96 22 13 42 14 42 1z"/>
<path d="M9148 1902 c-25 -5 -22 -37 5 -63 12 -12 56 -37 97 -56 41 -19 86
-41 100 -49 14 -8 40 -22 58 -30 l32 -14 -22 -30 -22 -30 20 -27 c20 -27 25
-30 79 -54 52 -23 95 -59 114 -98 11 -20 27 -43 35 -51 10 -7 14 -20 10 -32
-3 -10 2 -40 11 -67 18 -55 56 -86 140 -117 28 -10 96 -46 152 -81 57 -34 147
-83 200 -109 54 -25 152 -72 218 -104 66 -33 136 -66 155 -75 19 -8 57 -31 83
-49 27 -19 56 -32 65 -29 10 2 36 -9 58 -25 61 -44 77 -47 113 -16 19 16 31
35 31 50 0 28 26 84 39 84 14 0 481 -231 481 -238 0 -11 -70 -114 -96 -142
-19 -21 -22 -31 -15 -55 7 -27 12 -30 45 -30 29 -1 43 -7 57 -25 35 -46 41
-51 52 -47 7 2 36 44 66 93 72 120 140 227 227 359 54 82 80 113 103 122 45
17 39 39 -16 58 -100 36 -133 50 -133 58 0 4 5 7 10 7 13 0 13 27 0 35 -15 10
-44 -29 -97 -128 -44 -86 -68 -111 -82 -90 -3 6 -71 43 -151 83 -176 88 -302
159 -296 168 2 4 25 38 50 76 53 78 52 84 -21 116 -25 11 -58 31 -75 45 -16
14 -35 25 -41 25 -7 0 -29 11 -49 25 -20 14 -44 25 -53 25 -21 0 -63 22 -154
82 -80 52 -412 219 -566 283 -94 40 -180 90 -204 119 -13 15 -15 15 -32 0 -13
-12 -16 -25 -12 -45 6 -32 5 -32 -51 -19 -30 6 -44 5 -62 -7 -30 -19 -113 -9
-148 18 -32 25 -97 25 -120 0 -34 -38 -64 -33 -194 31 -131 64 -167 76 -194
70z m837 -132 c18 -17 78 -49 139 -75 171 -70 443 -209 551 -281 128 -85 178
-108 219 -100 27 5 43 -1 97 -36 35 -24 76 -50 91 -58 l26 -15 -81 -95 c-44
-52 -96 -119 -114 -147 -18 -29 -40 -53 -48 -53 -7 0 -17 -15 -21 -32 -3 -18
-14 -49 -23 -68 -8 -19 -16 -36 -16 -37 -3 -7 -140 58 -138 64 1 5 8 23 15 41
9 24 10 37 2 50 -18 29 -47 21 -56 -15 -9 -36 -36 -44 -58 -18 -9 11 -7 22 10
53 31 55 79 175 73 185 -9 16 -63 -36 -82 -78 -11 -25 -32 -62 -47 -82 -16
-21 -29 -40 -31 -42 -4 -6 -83 31 -83 40 0 4 9 28 20 54 24 57 26 91 4 99 -23
9 -41 -9 -71 -68 -32 -63 -27 -60 -52 -44 -25 15 -26 33 -7 79 16 39 6 69 -24
69 -17 0 -33 -19 -76 -88 -1 -2 -12 2 -24 8 -14 7 -20 18 -16 28 17 53 64 237
61 240 -2 2 -13 -2 -25 -8 -23 -12 -70 -106 -90 -178 -6 -24 -14 -42 -18 -40
-4 2 -26 14 -50 28 -48 28 -48 31 -10 144 23 72 21 100 -10 104 -19 3 -26 -5
-47 -51 -13 -30 -27 -71 -30 -91 -4 -20 -9 -36 -12 -36 -4 0 -85 40 -91 45 -1
1 13 26 33 56 59 90 80 169 46 169 -22 0 -72 -71 -125 -177 -12 -26 -33 -29
-58 -9 -24 17 -23 23 11 98 28 62 56 109 155 264 38 59 47 80 39 93 -10 16 -7
41 5 41 3 0 20 -14 37 -30z m1135 -806 c60 -39 163 -94 357 -193 l42 -21 -36
-60 c-19 -33 -38 -60 -42 -60 -3 0 -22 13 -41 28 -57 46 -137 91 -285 161 -77
37 -146 70 -153 75 -10 6 -1 21 35 61 26 29 49 53 50 54 1 1 34 -20 73 -45z
m659 -69 c2 -2 -30 -46 -71 -97 -85 -106 -167 -222 -228 -323 -23 -38 -44 -72
-46 -74 -2 -2 -15 4 -29 13 l-25 17 58 87 c79 117 175 283 207 359 l27 62 52
-20 c28 -12 53 -22 55 -24z"/>
</g>
</svg>
